<?xml version="1.0" encoding="utf-8"?>
<!-- Generator: Adobe Illustrator 28.0.0, SVG Export Plug-In . SVG Version: 6.00 Build 0)  -->
<svg version="1.1" id="Layer_1" xmlns="http://www.w3.org/2000/svg" xmlns:xlink="http://www.w3.org/1999/xlink" x="0px" y="0px"
	 viewBox="0 0 154.3 45.4" style="enable-background:new 0 0 154.3 45.4;" xml:space="preserve">
<style type="text/css">
	.st0{font-family:'MyriadPro-Regular';}
	.st1{font-size:36.4236px;}
	.st2{fill:#572364;}
</style>
<text transform="matrix(0.9928 0 0 1 53.1509 34.5019)" class="st0 st1">Vortex</text>
<g>
	<path class="st2" d="M22.7,0.6c-1.1,0.2-2,0.8-2,1.2c0,0.3,0.2,0.5,0.9,0.9c2,1.2,2.6,3.3,1.8,6.3c-0.1,0.5-1.3,3.1-2.7,5.8
		c-5.1,10.4-6.2,13.5-6.2,17.2c0,2.1,0.2,3.1,1.1,5.2c0.8,1.9,0.7,2.3-0.3,1.4c-0.8-0.8-1.8-2.7-2-4.3c-0.3-1.6-0.2-5.9,0.2-7.6
		C14.3,23,15.4,20,17.8,15c2.8-5.6,3.3-7.5,2.7-9.3c-0.3-1-0.9-1.6-2.1-2.2c-0.9-0.4-1.1-0.5-2-0.4c-1.3,0.1-2.4,0.7-4.2,2.2
		c-2,1.7-3.5,3.4-5.2,6.4c-1.6,2.8-2.5,5.5-2.8,8.4c-0.3,3,0.4,7.3,1.7,10.1c0.6,1.2,2.1,2.9,2.5,2.9c0.4,0,0.3-0.1-0.2-1.2
		c-0.9-2-1.7-5.2-2-8c-0.2-2.4,0.1-5.2,1-7.3c1.5-3.4,3.8-5.2,5.4-4.2c0.9,0.5,0.9,0.6-0.8,5.8c-0.5,1.5-1.1,3.7-1.4,5
		c-0.5,2.1-0.5,2.7-0.6,5.1c-0.1,2.1,0,3,0.2,4.2c0.5,2.9,2.2,6.4,4,8.1c2.2,2.1,5.9,3.9,8.9,4.3c1.4,0.2,1.9,0.1,1.9-0.4
		c0-0.1-0.3-0.8-0.6-1.4c-0.3-0.7-0.8-1.9-1.1-2.6c-0.4-1.2-0.5-1.6-0.5-2.9c0-3,0.8-4.3,7-11.3c5.6-6.3,8.1-9.3,9-10.9
		c0.2-0.4,0.6-1.3,0.9-2c0.4-1.1,0.5-1.6,0.5-3.3c0.1-1.8,0-2.1-0.3-3.2c-0.8-2.5-2.6-4.6-4.7-5.4c-1.1-0.4-3.1-0.5-3.8-0.1
		c-0.8,0.4-0.7,0.8,0.3,1.6s1.4,1.4,1.8,2.8c0.5,1.9,0.2,4.1-1.1,7.2c-1.3,3.5-1.9,4.2-8.6,12.5c-2.1,2.5-3.8,5.8-4.3,8.2
		c-0.3,1.2-0.3,4.2-0.1,5.4c0.2,0.9,0,1.1-0.4,0.8c-0.9-0.5-1.8-4.1-1.6-6.4c0.1-1.5,0.8-3.5,1.7-5.3c0.4-0.7,2.1-3.2,3.8-5.5
		c1.7-2.3,3.5-4.8,3.9-5.5c1-1.7,2.3-4.3,2.8-5.8c1.2-3.4,0.7-6.6-1.3-8.5c-0.9-0.8-2.6-1.7-3.8-1.9C23.8,0.5,23.7,0.5,22.7,0.6z"/>
	<path class="st2" d="M42.8,8.5c-0.2,0.1-0.2,0.3,0.1,2.4c0.3,1.7-0.2,3.9-1.2,5.8c-1.4,2.6-2.6,4.1-10.4,12.4
		c-4.4,4.7-4.8,5.1-5.4,6.3c-0.5,1.1-0.6,1.2-0.6,2.5c0,1.2,0,1.5,0.5,2.4c1,2.2,2.3,3.3,4,3.5c1.6,0.2,5.3-0.8,7.6-2
		c2.6-1.3,5.4-3.7,7.1-5.9c1.1-1.4,2.8-4.7,3.4-6.4c0.6-1.9,0.9-3.9,0.9-6.8c0-3-0.2-4.5-0.8-6.7c-0.8-2.7-3-6.8-4-7.5
		C43.7,8.4,43.1,8.3,42.8,8.5z M46,14.9c0.3,0.6,0.9,2.3,1.1,3.8c0.4,2.5,0.2,6.9-0.6,9.2c-0.9,3-3.9,7.4-6.6,9.7
		c-2,1.7-4.1,2.6-6.1,2.6c-2.3,0-3.2-1.3-2.4-3.4c0.3-0.8,0.5-1.1,4-5.1c1.9-2.2,2.6-3,5.2-6.1c1.5-1.8,2.4-3.1,3.2-4.7
		c0.9-1.9,1.2-3,1.4-4.8c0-0.7,0.1-1.3,0.2-1.4C45.4,14.4,45.7,14.5,46,14.9z"/>
</g>
</svg>
