<?xml version="1.0" encoding="utf-8"?>
<!-- Generator: Adobe Illustrator 28.0.0, SVG Export Plug-In . SVG Version: 6.00 Build 0)  -->
<svg version="1.1" id="Capa_1" xmlns="http://www.w3.org/2000/svg" xmlns:xlink="http://www.w3.org/1999/xlink" x="0px" y="0px"
	 viewBox="0 0 564 752" style="enable-background:new 0 0 564 752;" xml:space="preserve">
<g transform="translate(0.000000,752.000000) scale(0.100000,-0.100000)">
	<path d="M2213,5649c-17-45-5-63,25-39c22,18,22,20,6,45c-9,14-17,25-18,25S2219,5666,2213,5649z"/>
	<path d="M2750,5606c-3-3-37-8-75-10c-83-6-165-29-220-61c-57-33-130-114-145-161c-7-21-16-43-21-48s-6-48-2-96c6-85,5-86-27-132
		c-57-81-50-207,14-267c19-18,22-28,16-54c-13-61-32-102-54-118c-20-16-158-61-223-74c-44-9-168-140-182-193c-22-81-17-181,15-272
		c26-76,29-97,28-200c-1-117-14-229-34-310c-6-25-9-59-6-76c4-17,2-44-3-60c-16-50-25-144-25-279c-1-129-1-131,32-191
		c18-33,46-75,62-93l30-32l-28-12c-143-63-404-271-526-420l-36-44l-274-6c-286-7-382-19-524-68c-121-42-164-98-128-167
		s209-157,406-207c36-9,81-20,100-25c69-17,158-30,355-50c110-12,229-27,264-36c156-36,428-77,629-94c106-10,233-28,377-56
		c44-8,179-26,300-39c121-14,238-29,260-34c67-15,535-51,535-40c0,3-48,9-107,13c-170,10-331,26-423,41c-47,7-132,19-190,25
		c-223,24-277,31-345,45c-122,25-324,53-490,70c-172,17-338,42-524,80c-64,13-174,29-246,35c-180,16-309,36-450,71
		c-160,39-206,55-296,100c-127,63-168,117-143,184c17,44,208,107,376,124c109,12,495,17,505,8c3-4-46-7-110-7c-193,0-421-36-547-86
		c-64-26-130-80-130-108c0-24,99-89,183-118c44-16,82-27,84-24c2,2-31,16-74,30c-79,27-168,79-178,105c-17,44,87,105,235,139
		c110,26,210,42,246,41c39-1-79-27-126-28c-20-1-46-8-58-17c-12-8-22-13-22-10c0,8-111-43-142-65c-65-47-22-103,115-148
		c212-70,447-118,882-182c77-11,172-26,210-34c80-17,161-29,290-46c50-6,131-18,180-26c413-68,896-123,1395-157c118-9,217-12,220-8
		c3,5,93,5,200,1c193-6,352-1,584,21c65,6,124,9,132,6c7-3,41-1,76,5c50,8,69,16,91,40c15,16,25,34,22,39c-4,6-1,10,4,10
		c6,0,11-5,11-11c0-8,5-8,15,1c12,10,15,10,15-3c0-9-8-21-17-26c-10-6-13-11-7-11c11,0,44,32,44,43c0,3-10,11-21,18c-15,8-19,8-15,0
		c14-22-10-10-37,19c-30,31-60,43-36,13c13-15,12-15-8-3c-12,8-19,18-16,24c3,5,1,6-5,2s-22-1-34,7c-13,8-45,20-71,27
		c-71,19-51,22,32,5c117-25,241-95,228-129c-18-47-230-106-448-126l-104-9l105,4c187,8,387,58,445,111c37,34,21,56-73,103
		c-83,41-277,95-308,85c-16-5-17-4-4,6s11,11-8,7c-12-3-20-1-16,4c3,5-3,9-13,9c-32,0-267,61-278,72c-7,7,0,8,20,4c17-3,48-8,70-12
		c64-10,464-111,529-134c125-43,230-119,210-151c-8-14-151-81-219-102c-85-26-211-40-369-40c-300,0-624,10-945,29c-55,3-91,2-87-4
		c6-9,92-14,646-33c473-16,655-6,798,45c83,30,190,85,196,103c16,41-93,121-226,167c-103,36-496,134-568,142c-33,4-64,12-69,18
		s-18,35-29,64c-22,56-91,170-183,298c-60,83-161,176-293,268c-66,47-68,50-63,83c5,26,1,42-16,64c-19,26-21,43-22,142
		c-1,93-5,122-25,172c-14,36-23,79-22,108c0,38-3,47-16,47c-14,0-17,10-16,62c1,35,4,77,8,93c5,20,2,37-7,49c-13,17-13,25,1,63
		c15,40,15,44-4,70c-12,17-24,53-28,87l-7,60l58,58c52,53,57,61,55,98c-2,35,1,42,23,52c74,34,72,172-3,251c-37,40-94,67-138,67
		c-24,0-49,9-71,26c-18,14-48,30-66,36c-17,6-43,19-56,30c-13,10-37,18-52,18c-16,0-29,4-29,9c0,14-57,33-77,27c-13-4-33,4-59,24
		c-21,16-45,30-53,30c-27,0-100,41-105,58c-2,9-3,28-1,42s4,28,4,32c1,4,7,13,14,20s32,52,56,99c41,84,43,90,48,205
		c4,93,2,133-12,184c-9,36-21,89-26,118c-4,29-19,77-32,105c-41,89-183,216-268,241C2863,5601,2758,5615,2750,5606z M2942,5558
		c34-16,85-54,130-96l73-71l-90,6c-169,10-310-27-457-119c-26-16-54-31-63-32c-8-1-30-15-47-32c-26-23-28-24-10-3c12,14,22,31,22,38
		s4,10,9,6c5-3,16,4,24,15c7,11,16,17,19,14s9-1,12,4s-6,12-19,15c-19,3-32-3-50-24c-13-16-26-29-29-29c-14,0-4,21,24,51
		c16,18,27,35,25,37c-2,3-19-10-36-29c-37-39-49-27-25,22c19,37,20,42,6,34c-5-3-10-2-10,3c0,6,7,12,15,15c8,4,21,21,28,39
		c22,53,110,125,181,148C2759,5598,2865,5593,2942,5558z M2560,5539c-72-39-128-93-152-147c-18-39-22-42-53-40l-34,2l15,35
		c25,62,122,140,209,167C2612,5577,2618,5571,2560,5539z M3115,5378c23,1,65-35,65-55c0-8-5-11-10-8c-6,4-8,10-5,15c3,4-2,10-10,14
		c-8,3-17,2-19-3c-3-4-49-8-103-9c-143-3-236-20-326-61c-25-12-49-21-52-21c-4,0-19-9-34-19c-15-11-39-23-54-26c-15-4-27-11-27-16
		s-5-9-11-9c-5,0-2,13,7,29c10,17,21,28,26,25c4-3,8,0,8,6s10,15,23,20c12,5,36,18,52,29c34,24,60,28,31,6c-11-8-17-17-14-20
		c3-4,14,5,24,18c23,29,63,56,95,63c96,24,173,32,239,27C3061,5380,3104,5378,3115,5378z M3145,5301c29-10,51-24,53-34
		c2-9-1-17-7-17s-11,4-11,9c0,12-83,31-140,32c-38,0-106-10-235-35c-34-6-163-65-212-96c-26-16-49-28-51-25c-9,9,33,48,68,62
		c19,8,42,21,51,29c29,26,177,73,256,82C3038,5322,3091,5321,3145,5301z M2390,5245c0-9-9-13-27-11c-16,1-34-2-40-7c-8-6-13-6-13,1
		c0,13,21,29,45,34C2380,5268,2390,5263,2390,5245z M2452,5218c-7-7-12-8-12-2c0,14,12,26,19,19C2461,5232,2458,5224,2452,5218z
		 M2390,5201c0-25-12-32-30-21c-10,6-21,3-32-7c-17-15-18-14-18,7c0,13,3,21,6,18c3-4,17,0,32,8C2384,5224,2390,5224,2390,5201z
		 M2516,5185c2-24-6-32-19-19c-5,6,9,44,16,44C2514,5210,2516,5199,2516,5185z M3228,5128c20-96,24-162,13-242c-11-77-37-140-53-130
		c-5,3-3,13,4,22c12,14,10,14-9,3c-13-6-23-7-23-2s6,12,13,14c6,3,2,6-10,6c-24,1-33,20-10,22c6,0,3,4-8,9s-14,9-7,9c6,1,12,9,12,18
		c0,13-3,14-12,5c-14-14-28-16-28-4c0,5,10,14,23,21c22,11,22,11-3,7c-21-4-22-3-10,7c9,7,15,28,15,49c0,33-3,37-20,32
		c-11-3-15-2-9,3c13,10,26,55,13,47c-5-3-9-1-9,5c0,5,4,12,10,16c5,3,7,12,3,20c-3,10,1,15,12,15c9,0,13,5,10,10c-4,6-11,7-17,4
		c-7-4-8-2-4,4c4,7,13,12,21,12s11,7,9,18c-3,11,5,23,23,34c15,10,31,18,34,18S3222,5156,3228,5128z M2478,5134c34-22,80-100,87-148
		c8-51-16-118-53-146c-13-11-28-20-33-20c-16,0,2,27,26,38c20,9,23,17,20,49c-4,35-4,36,4,8c7-24,9-16,10,40c1,52-4,78-18,101
		c-19,32-84,70-101,59c-18-11-10-25,24-42c42-20,56-49,56-116c-1-47-19-95-32-81c-3,2-8-2-12-11c-3-9-2-13,4-10c12,8,12,3,1-28
		c-8-19-17-24-51-25c-41-2-110,22-110,39c0,4,5,11,10,14c6,3,10,1,10-5s5-8,10-5c6,3,10,3,10-2c0-12,57-8,73,5c8,7,17,9,20,6
		c10-10,26,68,23,107c-5,44-20,75-45,89c-21,10-101,9-101-2c0-4-7-14-16-22c-16-16-37-119-22-110c4,3,8-1,8-10c0-8,5-16,12-18
		c7-3,9-12,5-22c-6-14-9-15-20-4c-39,41-50,153-19,199c28,42,67,86,83,92C2363,5163,2453,5150,2478,5134z M2580,5082c0-15-2-15-10-2
		c-13,20-13,33,0,25C2576,5102,2580,5091,2580,5082z M2520,5027c0-5-4-5-10-2c-5,3-10,14-10,23c0,15,2,15,10,2
		C2515,5042,2520,5031,2520,5027z M2560,4840c0-5-5-10-11-10c-5,0-7,5-4,10c3,6,8,10,11,10C2558,4850,2560,4846,2560,4840z
		 M2546,4799c37-40,128-95,219-129c74-28,307-42,329-20c16,16,36,11,36-9c0-27-61-40-183-37c-67,2-113,8-132,18c-17,9-46,18-66,22
		c-74,13-287,176-231,176C2523,4820,2535,4811,2546,4799z M2543,4753c64-59,135-101,227-133c83-29,106-33,200-33c58,0,115,3,128,7
		c28,9,29-9,1-25c-35-18-211-12-292,10c-40,11-95,22-124,26c-39,5-66,17-112,51c-34,24-61,40-61,35c0-4,18-21,40-36s40-29,40-31
		c0-6-68,23-135,57c-39,20-51,29-32,26c29-5,34,2,15,21c-8,8-5,14,16,22c15,5,33,8,39,4c7-3,2,4-11,15l-23,20l26-3
		C2499,4784,2525,4770,2543,4753z M2314,4688c-3-5-14-8-24-8c-16,0-17,3-7,30c11,30,11,30,23,8C2313,4705,2316,4692,2314,4688z
		 M2430,4655c34-36,64-49,39-18c-8,9,4,4,25-12c22-17,37-24,32-17c-9,15-8,15,45-4c24-8,76-21,114-28c39-8,84-18,100-24
		c119-41,150-45,249-31c70,10,81,10,91-5c7-9,17-16,24-16c6,0,28-9,48-20c21-11,43-20,48-20c6,0,26-11,45-25c22-16,47-25,71-25
		c21,0,44-7,53-15c8-8,20-15,26-15s27-7,48-16l37-16l-64-14c-78-16-111-37-111-68c0-15-13-36-34-54c-19-17-32-33-29-36c4-3,1-6-5-6
		c-16,0-15,36,2,73c8,18,16,46,18,62c2,23,11,33,36,44c17,8,32,18,32,23c0,10-49-11-73-31c-9-8-16-26-15-40c2-28-17-71-31-71
		c-17,0-31,59-20,87c10,28,1,103-11,83c-4-6-5-22-2-35c2-13-2-33-10-44c-14-19-16-17-46,48c-18,38-32,83-32,100v32l-95-5
		c-57-3-97-2-100,4c-4,6-10,8-15,5s-39,0-77,6c-37,6-87,10-109,10c-97-3-285,70-320,125c-9,13-19,22-23,19c-4-2-8,2-8,10
		C2383,4697,2393,4693,2430,4655z M2355,4650c22-17,60-43,87-57c26-14,48-29,48-32c0-4,8-7,18-8c9,0,50-10,91-22c40-12,94-23,120-25
		c25-2,75-8,111-13c36-4,109-8,163-8c91,0,98-1,93-19c-3-11,11-41,35-77c45-66,57-115,39-159c-15-36-23-38-38-6c-8,19-22,25-68,32
		c-51,8-59,12-67,37c-5,15-6,44-2,63c6,33,7,35,43,30l37-6l-32,12c-18,6-33,15-33,21c0,5,7,6,16,3c10-4,13-2,8,6s-1,9,12,4
		c30-12,36-12,40-1c2,6-8,16-24,23c-17,8-28,9-30,2c-2-5-8-10-13-10c-13,0-65-37-106-73c-25-23-37-28-60-23c-49,11-134,49-199,89
		c-34,20-67,37-73,37s-28,15-48,33c-72,61-101,78-128,71c-23-6-30,2-26,29c0,4-2,6-6,5c-12-4-83,40-83,51c0,5,8,12,18,14
		c9,3,18,5,18,6C2317,4679,2334,4666,2355,4650z M3165,4660c-3-5-10-10-16-10c-5,0-9,5-9,10c0,6,7,10,16,10
		C3164,4670,3168,4666,3165,4660z M2263,4620c-3-12,1-22,11-26c22-8,21-44-1-44c-14,0-18,8-17,38c1,44,3,52,8,52
		C2266,4640,2266,4631,2263,4620z M2239,4613c0-11-3-13-6-5c-2,6-9,10-14,6c-5-3-9,0-9,5c0,6,7,11,15,11S2240,4622,2239,4613z
		 M2190,4605c1,17,3,16,16-7c8-16,19-28,24-28c25,0,5-18-42-38c-28-12-49-25-45-28c4-4,24,1,45,10c23,11,56,16,82,14l44-3l-87-34
		c-71-27-91-40-108-68c-12-19-19-36-16-39c2-3,13,10,24,28c13,22,35,40,61,50l42,16l-15-28c-8-16-27-38-41-49c-15-12-22-21-17-21
		c14,0,83,77,83,91s137,6,166-9c11-6,36-18,57-27s37-18,35-20s-28-6-58-10c-30-3-64-13-75-21s-39-27-62-42c-53-33-56-47-6-21
		c44,22,60,7,24-22c-11-9-21-22-21-29c0-17,47,42,51,65c5,25,43,43,105,51c27,3,64,12,81,20c24,11,38,12,52,4c11-5,32-10,48-10
		s37-6,48-14c34-23,165-66,195-64c19,1,38-6,55-22c14-13,25-19,25-14s6,0,12-10c8-15,8-21,0-24c-7-2-12-8-12-13c0-6,8-6,19,1
		c20,10,53,8,104-5c37-10,34-22-5-17c-72,8-174-96-183-186c-2-25-8-36-17-34c-7,2-10,1-6-3c8-9-16-35-31-35c-6,0-11,5-11,10
		c0,6,5,10,12,10c6,0,8,3,5,6c-4,4-12,2-19-4c-18-14-33,6-33,42c1,20,13,40,45,70c27,24,54,62,66,93c26,63,10,60-17-3
		c-10-26-28-48-41-53c-27-11-98-93-98-115c0-8,6-16,12-18c7-3-4-5-25-6c-34-1-37,1-32,18c5,16,2,20-17,20c-18,0-20,2-8,10
		c8,5,11,10,7,10s-3,10,3,23c10,20,9,20-9-3c-25-31-27-50-3-51c9,0,12-3,5-5c-7-3-22,0-35,7c-13,8-26,14-30,15c-5,1-10,3-13,4
		c-8,4-24,7-40,9c-8,0-16,9-16,19c-1,16-2,16-6,0c-7-26-22-22-17,5c4,22,4,22-7,1c-14-27-57-21-69,10c-8,20-9,20-10-4
		c0-20-2-22-10-10c-5,8-10,10-10,4c0-7-11-9-26-6c-16,3-23,10-20,18s0,11-10,7c-12-4-13-1-4,23c14,37,47,72,85,91l30,16l-22-25
		c-13-13-23-30-23-37c0-8,9-2,20,12s37,31,58,37c80,26,69,45-21,36c-54-6-70-13-97-39c-18-18-39-47-47-64c-10-26-18-32-36-29
		c-12,3-28,5-35,5c-9,1-11,8-6,24c15,48,15,51,0,27c-8-14-15-33-16-42c0-10-5-18-11-18c-7,0-10,12-7,29c2,17,1,28-4,25
		c-4-3-8-12-8-19c0-8-9-19-20-25c-14-8-20-8-20,0c0,6-4,8-10,5c-14-9-12,20,5,61c8,19,10,32,5,29s-15-24-21-45c-7-22-16-40-21-40
		c-19,0-19,31,1,76c12,26,19,49,17,51s-14-21-26-51c-20-47-26-54-47-50s-23,1-20-28c2-18-2-46-8-62c-11-26-12-27-18-7
		c-3,11-2,19,2,17c4-3,7,22,8,55c0,33,0,58-1,57c-1-2-10-14-21-27c-11-14-14-21-7-17c18,10,15-2-7-30c-11-14-21-19-23-13
		s-10-2-17-17c-9-21-9-26,0-17s14,9,23,0c29-29,24-44-35-103c-63-63-78-58-28,10l31,41l-31-35c-17-19-31-30-32-25c0,6-3,23-5,39
		c-4,22,2,36,23,60c25,28,25,29,2,8c-44-38-54-21-18,30c17,23,24,27,30,16c7-10,9-10,10,2c0,10,3,9,8-4c7-18,11-16,34,19
		c33,48,34,58,5,50c-18-6-20-4-13,11c4,11,10,31,13,47c2,15,9,30,15,34s8-2,5-15c-4-12-2-25,3-28s9,5,9,18c1,13,7,34,15,48
		c9,15,14,53,15,97c0,67-2,73-31,97c-17,14-42,26-57,26h-26l28,29c19,20,44,33,80,39c28,6,69,17,91,25c36,14,41,14,47-1
		C2188,4588,2189,4588,2190,4605z M2315,4584c2-19,8-28,16-25c29,7,44,6,44-6c0-6,3-15,8-19c16-17,5-24-15-10c-12,9-33,16-45,16
		c-20,0-23,5-23,42C2300,4628,2309,4629,2315,4584z M2335,4600c3-5,1-10-4-10c-6,0-11,5-11,10c0,6,2,10,4,10
		C2327,4610,2332,4606,2335,4600z M1955,4486c-48-22-66-39-56-54c6-11,14-6,30,17c23,31,43,41,39,19c-2-7,5-12,15-10
		c26,4,22-2-35-60c-29-29-45-44-35-32c23,28,22,41-2,20c-11-10-21-13-25-7c-4,5-2,12,4,16c5,3,10,11,10,17c0,7-4,7-13-1
		c-8-6-17-8-21-4s-4,0-1-9c4-9,1-19-5-23c-19-12-2,46,22,74c37,42,50,51,77,51C1985,4499,1985,4499,1955,4486z M2024,4468
		c10-14,15-41,14-73l-1-50l-4,45c-3,25-10,52-17,60c-21,25-28,40-17,40C2004,4490,2016,4480,2024,4468z M2555,4460c3-5,1-10-4-10
		c-6,0-11,5-11,10c0,6,2,10,4,10C2547,4470,2552,4466,2555,4460z M2527,4428c-3-8-6-5-6,6c-1,11,2,17,5,13
		C2529,4444,2530,4435,2527,4428z M2616,4435c16-12,16-14,3-15c-9,0-22,7-29,15C2574,4454,2590,4454,2616,4435z M2016,4382
		c-1-16-9-39-19-53c-10-13-15-18-12-11c4,7,1,20-6,28c-10,12-10,15,2,12c8-2,14,4,14,12c1,14,13,40,19,40
		C2016,4410,2017,4397,2016,4382z M2973,4353c-7-60-9-61-32-35c-10,12-23,22-30,22c-6,0-3,9,6,20c10,11,23,20,30,20s13,5,13,10
		c0,6,4,10,10,10S2977,4381,2973,4353z M3566,4330c8,0,31-15,51-34c30-26,47-33,78-33c103,0,195-96,195-205c0-25-49-96-50-71
		c0,6-15,38-34,71c-20,35-30,62-24,64c7,3,8,15,5,29c-6,22-13,26-47,27c-25,1-39-2-35-8c3-6,1-10-5-10s-15,10-20,23c-7,17-9,18-9,5
		c-1-22-24-23-41-3c-19,23-1,38,39,32c20-3,30-3,23,0c-6,2-10,9-7,14c4,5-8,6-26,2c-29-5-31-4-24,16c3,11,2,21-3,21s-12-9-15-20
		c-3-13-11-18-20-14c-13,5-29-9-33-28c-1-5-2-11-3-15c0-3-10,2-20,11c-25,22-61,6-61-27c0-35-16-50-49-49c-26,1-31-3-31-22
		c0-13-9-31-20-41c-17-15-22-16-36-4c-21,17-49,79-45,99c2,8,19,33,40,56c20,22,41,48,46,58c11,19,132,66,153,60
		C3546,4332,3558,4330,3566,4330z M1934,4298c22-31,20-48-9-78c-22-23-24-30-14-58c9-26,8-35-8-56c-26-36-36-32-18,7
		c12,23,12,27,2,15c-19-24-24-23-31,8c-5,19,0,36,19,62l27,37l-27-29c-32-34-45-27-20,11l18,28l-21-19c-23-20-31-9-9,13
		c10,11,10,13,0,7c-19-10-15,15,5,40C1879,4325,1913,4329,1934,4298z M2020,4306c0-2-7-9-15-16c-13-11-14-10-9,4
		S2020,4317,2020,4306z M1944,4205c-9-14-19-23-22-20c-5,4,26,45,35,45C1959,4230,1953,4219,1944,4205z M3595,4220c-3-5-11-10-16-10
		c-6,0-7,5-4,10c3,6,11,10,16,10C3597,4230,3598,4226,3595,4220z M3249,4175c22-24,41-53,41-62c0-19-85-123-101-123
		c-5,0-23,25-40,55c-27,48-33,54-47,43c-12-10-11-4,4,22c46,79,70,110,85,110C3200,4220,3226,4200,3249,4175z M3521,4187
		c-10-9-11-8-5,6c3,10,9,15,12,12S3528,4194,3521,4187z M3612,4192c4-15,1-18-19-14c-22,4-22,5-6,18c10,7,19,14,19,14
		C3607,4210,3610,4202,3612,4192z M3100,4189c0-6-23-51-50-99c-28-48-53-103-57-124c-3-20-10-36-14-36c-14,0-10,45,6,76
		c8,16,22,63,31,104s22,78,28,82C3061,4204,3100,4201,3100,4189z M3590,4149c-36-10-50-10-50,0c0,12,29,18,55,12
		C3613,4157,3613,4155,3590,4149z M3690,4135c35-18,37-26,10-43c-16-10-27-8-65,10c-44,22-45,22-23,35
		C3642,4153,3655,4153,3690,4135z M2100,4121c0-12-20-25-27-18s6,27,18,27C2096,4130,2100,4126,2100,4121z M3500,4125
		c0-12-30-62-58-97l-29-37l-23,24l-23,24l26,12c13,6,31,22,38,36C3446,4115,3500,4144,3500,4125z M2113,4103c-5-15-3-16,8-5
		c7,6,20,12,29,11c9,0,6-4-8-9c-12-5-24-8-26-7s-14-7-27-18c-13-12-19-14-14-5c9,17,36,50,41,50C2118,4120,2117,4112,2113,4103z
		 M3652,4069c91-46,158-121,158-176c0-10-29-47-64-81c-51-51-69-62-85-57c-29,9-27,21,15,89c21,36,33,65,28,75c-5,14-7,14-13,1
		c-16-38-73-129-90-144c-16-15-22-15-40-4c-12,7-21,15-21,18s22,39,49,80c70,109,51,116-22,7c-45-65-70-93-89-98c-33-9-36-5-30,27
		c4,24,5,24,23,8c11-9,19-14,19-11c0,4,0,9,0,12s-3,5-6,4c-4,0-10,5-15,12c-10,16,30,92,71,136c34,37,36,40,15,40c-8,0-15-4-15-9
		c0-12-89-120-113-137c-28-20-41,5-15,31c18,18,16,44-3,33c-31-20,18,59,74,118C3552,4116,3558,4117,3652,4069z M3794,4048
		c13-20,27-47,31-59c5-19,4-21-4-9c-9,12-11,12-11,1c0-8-24,10-52,39c-32,32-48,55-40,57c6,3,12,11,12,19
		C3730,4118,3763,4093,3794,4048z M2954,4076c-5-14-9-15-15-5c-5,8-3,17,4,21C2958,4101,2962,4096,2954,4076z M2200,4084
		c0-4-20-24-45-46s-43-43-40-48c2-4-33-44-79-88c-62-59-90-80-108-79c-21,2-25,7-24,34c1,24,16,49,64,103c35,38,70,70,79,70
		c8,0,27,9,43,20c15,11,37,21,49,23c11,2,24,6,27,10C2175,4092,2200,4092,2200,4084z M3329,4039c13-22,29-43,37-46
		c49-19-49-91-106-78c-16,3-31,2-34-4c-7-11-56,6-56,19c0,9,122,150,130,150C3303,4080,3317,4062,3329,4039z M2927,4048
		c-3-8-6-5-6,6c-1,11,2,17,5,13C2929,4064,2930,4055,2927,4048z M2165,4020c-16-16-34-30-39-30c-10,1,53,59,63,60
		C2192,4050,2181,4037,2165,4020z M3100,4041c0-5,10-11,21-14c15-4,20-11,15-22c-3-9-2-14,3-11s12-2,16-12c7-18-35-62-58-62
		c-7,0-4,7,6,14c23,18,22,51-5,75c-20,19-22,19-35,3c-8-9-13-12-10-7c2,6,7,18,10,28C3069,4050,3100,4057,3100,4041z M2315,4025
		c-11-8-25-19-31-24c-7-5-15-7-19-3s-5-2-3-13c2-12-2-19-9-18c-7,2-10-4-6-13c3-9,1-19-6-23c-13-8-5-41,10-41s10-42-8-62
		c-19-21-30-23-36-5c-2,6-3,3-1-7c2-11,0-39-3-62c-7-56-33-50-33,8c0,33-2,38-14,29c-25-21-27,16-3,53c27,42,43,47,23,7
		c-14-27-12-41,5-41c5,0,11,16,15,35c3,20,10,32,17,28s8,7,4,34c-6,34-3,46,21,76c28,36,55,55,82,56C2331,4039,2329,4035,2315,4025z
		 M2455,4020c-27-12-43-12-25,0c8,5,22,9,30,9C2470,4029,2468,4026,2455,4020z M2340,4015c0-2-10-9-22-15c-22-11-22-10-4,4
		C2335,4021,2340,4023,2340,4015z M2525,3999c-29-11-32-11-32,4c0,9,9,12,26,9C2542,4007,2543,4006,2525,3999z M2460,3996
		c0-2-8-10-17-17c-16-13-17-12-4,4S2460,4004,2460,3996z M2340,3980c0-5-2-10-4-10c-3,0-8,5-11,10c-3,6-1,10,4,10
		C2335,3990,2340,3986,2340,3980z M2690,3978c0-4-25-8-55-8s-55-3-55-7c0-18,46-53,69-52c21,1,22,2,6,6c-42,10-37,22,9,21
		c42,0,47-3,44-22c-3-18-10-21-58-22c-85-1-100-3-100-14c0-9,52-40,67-40c4,0-1,7-11,15c-18,14-14,15,48,15c60,0,67-2,56-15
		c-7-8-21-15-30-15c-10,0-20-3-22-8c-1-4-23-23-47-41c-38-30-41-36-27-47c9-6,43-14,75-18c49-6,60-11,70-32c15-33,16-31-29-54
		c-47-24-53-54-15-72c24-11,43-58,30-77c-3-6,3-19,13-29c23-23,39-67,38-106c-1-25-8-33-44-50c-29-15-40-26-37-36c4-8,3-11-1-7
		c-12,12-34-14-34-39c0-33-24-30-50,6c-21,30-70,50-121,50c-15,0-29,7-33,15c-3,8,0,15,6,15c7,0,6,6-3,16c-10,13-10,17,2,25
		c12,7,12,9-2,9c-17,0-43,46-34,61c4,5,1,9-5,9c-7,0-10,22-9,63c1,34-3,73-10,85c-6,12-9,22-6,22c4,0,3,6-2,13c-14,22-12,37,5,38
		c11,0,12,2,5,6c-7,2-13,9-13,14s11,3,25-3c22-10,24-15,18-51c-4-29-3-38,6-33c6,4,9,12,6,17c-4,5-2,9,2,9c5,0,10,11,11,25
		c1,19-7,31-38,50c-35,22-39,28-30,45c6,11,21,20,33,20c12,1,33,7,45,14l24,13l-39,30c-30,24-45,29-72,25c-24-3-32-1-27,7
		c4,6,1,25-8,41c-17,35-15,35,31,13c33-15,37-15,75,5l41,20l-36,7c-20,4-49,4-64,1l-28-7l25,21c14,11,36,20,50,20c14,1,39,7,55,14
		C2518,3989,2690,3992,2690,3978z M2908,3978c-3-7-13-15-23-16c-15-4-16-2-4,12C2898,3993,2913,3995,2908,3978z M3090,3985
		c0-2-13-11-30-20c-38-19-40-11-2,9C3089,3991,3090,3992,3090,3985z M2405,3970c-11-5-27-9-35-9c-9,0-8,4,5,9c11,5,27,9,35,9
		C2419,3979,2418,3975,2405,3970z M3100,3961c0-5-7-12-16-15c-14-5-15-4-4,9C3094,3972,3100,3974,3100,3961z M2130,3945
		c-7-8-9-15-5-15c5,0,0-10-11-22c-19-21-19-21,1-14c15,5,17,4,9-4c-6-6-19-12-28-14c-9-1-15-5-14-8c2-3-5-15-15-26
		c-15-16-15-20-4-18c8,1,23,8,33,16c13,10,15,10,7,1c-6-7-9-20-6-28c5-12,1-14-18-8c-13,5-30,8-36,8c-20,0-15,14,10,32l22,16l-25-4
		c-14-2-25-10-25-17s-13-15-30-17l-30-3l23,18c13,9,50,41,83,70C2128,3958,2156,3976,2130,3945z M2864,3898c-3-29-13-60-22-68
		c-13-13-14-13-8,5c4,11,10,41,13,68c3,26,10,47,15,47S2868,3927,2864,3898z M2941,3935c29-15,31-35,5-35c-7,0-25-9-40-21l-26-20v39
		C2880,3955,2890,3961,2941,3935z M2177,3922c-10-10-15-21-12-24c3-2-2-5-10-5c-12,0-10,6,7,24C2187,3944,2201,3949,2177,3922z
		 M3380,3931c0-6-5-13-10-16c-14-9-7-79,10-99c11-14,10-16-2-11c-20,8-82,85-74,92c10,11,61,42,69,42C3377,3940,3380,3936,3380,3931
		z M2810,3896c0,6-5,15-11,21c-9,9-6,10,10,6c15-4,21-12,19-26c-5-32-22-30-48,5l-23,33l26-24C2798,3897,2810,3891,2810,3896z
		 M3036,3898c2-2-4-21-14-41c-12-25-22-35-32-31c-8,3-32,8-53,11s-36,11-34,17C2912,3882,3017,3916,3036,3898z M3190,3900
		c12-8,12-10-2-15c-9-4-22-7-30-9c-7-1-19-6-27-10c-11-7-12-6-5,5C3150,3910,3164,3917,3190,3900z M3274,3885c3-8,1-15-3-15
		c-5,0-12,6-14,13c-3,7-6,5-6-5c-1-18-21-26-21-8c0,5-8,7-17,3c-15-5-14-3,2,10C3240,3904,3266,3904,3274,3885z M3068,3831
		c-61-66-72-64-38,8c21,46,24,49,47,38l24-10L3068,3831z M3190,3866c0-3-4-8-10-11c-5-3-10-1-10,4c0,6,5,11,10,11
		C3186,3870,3190,3868,3190,3866z M3136,3835c10-8,14-15,7-15c-19,0-43,11-43,21C3100,3854,3114,3852,3136,3835z M2959,3819
		c39-14,39-27-1-72c-18-19-42-53-53-74c-19-33-27-38-63-41c-39-3-55,9-33,23c5,3,12,18,16,34c3,16,15,40,26,52s22,34,26,48
		C2887,3831,2905,3838,2959,3819z M3110,3820c18-9,18-40,1-40s-43,28-37,38C3083,3833,3086,3833,3110,3820z M3305,3811
		c0-4,25-28,55-54s62-54,71-63c9-8,26-17,38-19s47-27,78-54c59-53,68-58,78-41c3,6,17,10,31,10s27,7,30,15c9,23,33,18,46-10
		c9-20,9-34,0-59c-16-43-15-56,3-76c12-13,13-23,5-44c-5-15-10-47-10-72c0-46-16-58-39-31c-6,8-47,31-91,51c-63,30-86,36-108,30
		l-27-7l38-10c39-11,50-27,17-27c-10,0-30-5-44-11c-27-13-40-5-119,67c-36,34-37,37-31,83c4,35,2,55-9,72c-8,13-18,35-22,49
		c-7,24-7,25,12,7c18-16,21-16,27-2c3,9,2,14-3,11c-4-3-19,6-32,21l-24,26l33-17c19-10,36-15,39-12c3,2-9,12-26,20
		c-37,20-58,49-66,94c-4,26-3,32,7,26s9-3-1,9c-12,15-10,18,10,26C3295,3828,3305,3825,3305,3811z M2710,3800c0-5-2-10-4-10
		s-12-3-22-7c-16-6-17-5-4,10C2697,3812,2710,3815,2710,3800z M2860,3799c0-29-22-49-53-49c-29,0-33,3-33,25c0,14,5,24,11,22
		c5-2,10-9,10-14c0-6,3-15,7-19c4-3,5,3,3,16c-3,16,0,20,10,16c8-3,15-1,15,4c0,6,7,10,15,10S2860,3805,2860,3799z M3484,3756
		c22-4,47-21,70-47c39-42,73-105,64-114c-3-4-29,16-56,43c-28,26-64,55-79,63c-34,17-83,69-83,87c0,10,7,8,25-6
		C3439,3771,3465,3759,3484,3756z M2139,3735c6-25,14-45,17-45c4,0,4,10,1,21c-6,21-5,21,21-2c15-13,29-25,31-26c1-1,0-6-3-11
		c-4-7-17-6-36,1c-22,8-33,22-45,56c-17,51-19,64-6,57C2124,3783,2133,3760,2139,3735z M2445,3780c3-6-1-7-9-4c-18,7-21,14-7,14
		C2435,3790,2442,3786,2445,3780z M3090,3775c11-13,8-15-13-15c-26,0-42,12-30,24C3058,3795,3077,3791,3090,3775z M3060,3750
		c13-8,12-10-5-11c-26-2-27-2-49,7c-14,5-17,4-12-4c4-7,0-15-9-18c-25-10-32,6-11,22C2997,3762,3038,3764,3060,3750z M2145,3666
		c9,4,19-4,27-21c11-25,9-34-20-86c-18-31-32-69-32-83s-4-28-10-31c-5-3-10-17-10-30s-11-45-25-72c-18-32-25-60-24-89
		c2-33-3-49-24-74c-15-17-27-38-27-45c0-8-18-32-39-53l-40-39l-25,26c-14,15-26,34-26,42c0,11,2,11,9,1c6-10,13-2,25,28
		c9,22,22,43,30,46c14,5,10,50-5,60c-5,3-6-3-2-12c4-12,3-15-5-10s-12,0-12-14c0-11-7-23-15-26c-8-4-15-14-15-24c0-11-3-21-7-23
		c-5-3-8,11-8,31c1,22-6,42-15,49c-8,6-11,15-7,19c4,5,12,2,17-6c8-12,10-9,10,10c0,14,9,44,20,65c12,22,21,52,22,68
		c1,34,16,35,24,2c4-14,9-24,11-21c3,3-1,22-7,42c-10,28-10,39-1,42c6,2,11,11,11,19s9,32,20,52s25,50,31,66l12,30l11-47
		c6-25,15-50,20-55c5-4,6,3,3,17c-17,78-18,88-6,96c7,4,10,3,6-4c-4-5-3-21,2-34c7-18,10-20,15-7c4,8,2,27-3,42c-6,14-6,29-2,32
		c5,3,17,28,27,56l19,52l13-46C2127,3674,2135,3663,2145,3666z M2740,3734c0-8-5-12-10-9c-6,4-8,11-5,16
		C2734,3755,2740,3752,2740,3734z M3190,3731c0-13-15-23-60-38c-41-13-56-15-48-6c6,7,16,13,22,13s25,11,41,25
		C3181,3754,3190,3756,3190,3731z M3655,3674c16-16,21-74,6-74c-5,0-19,19-31,43c-12,23-32,53-43,66l-22,24l23-6c13-3,22-1,22,6
		s7,0,15-16C3633,3702,3646,3683,3655,3674z M3698,3688c2-42,0-49-9-35c-6,10-8,21-5,24c10,10-15,44-27,38c-7-4-3,1,7,9
		C3693,3748,3696,3745,3698,3688z M2302,3675c-3-26,1-52,8-60c10-12,10-15-1-15c-10,0-10-3-3-8c6-4,17-32,24-62s18-71,25-90
		c8-19,16-53,20-75c3-22,15-70,26-107c11-36,21-77,23-90c1-14,14-46,29-72c34-61,35-86,3-86c-13,0-57-6-97-14c-41-8-116-19-168-25
		c-51-7-101-15-110-20c-24-12-99-24-82-12c7,5,10,14,6,21c-4,6,0,19,8,28s20,35,27,57c17,55,17,55,48,44l27-9l-25,20
		c-14,11-20,20-15,20c8,0,44,64,50,90c1,3,5,20,9,38c5,21,12,30,19,25c7-4,6,1-2,10c-12,15-11,17,3,17c10,0,15,4,12,9
		c-8,12,4,42,14,36c5-3,6,4,3,15c-3,12,0,20,6,20c7,0,10,4,7,9s-3,23,0,39c5,22,11,29,23,25c13-4,13-3,2,5c-12,9-12,18,3,66
		c10,31,22,56,28,56c5,0,7,4,4,8c-7,12,15,82,26,82c5,0,7,4,4,9c-4,5-3,16,0,25C2298,3734,2305,3720,2302,3675z M2990,3680
		c0-24-15-33-40-25s-26,25-2,25c13,0,14,2,3,9c-7,5-10,14-7,20C2955,3726,2990,3703,2990,3680z M3200,3691c0-11-31-24-39-16
		c-3,3,1,10,9,15C3189,3702,3200,3702,3200,3691z M3243,3606c4-22,3-35-2-30s-12,29-15,54c-4,29-4,40,2,30
		C3233,3652,3240,3627,3243,3606z M2770,3631c-5-10-7-21-5-25c3-3,2-4-2-1c-9,7-13,37-7,47C2767,3669,2780,3649,2770,3631z
		 M2957,3634c2-5-7-22-20-37c-20-25-24-27-41-14c-19,14-19,16-3,31c9,10,17,24,17,31c0,11,6,12,22,6C2944,3647,2955,3639,2957,3634z
		 M3211,3633c1-28,5-45,27-114c12-35,24-86,27-113c5-36,11-50,25-53c17-5,13-17-40-122c-32-64-79-142-104-173c-45-56-48-58-94-58
		c-74,0-159,17-186,37c-24,18-44,67-53,128c-2,17-8,43-14,59c-12,38-5,44,23,20c13-10,8-3-9,17c-36,39-45,82-15,77c10-2,16,2,14,10
		c-3,16,43,74,52,65c3-4,6,1,6,10c0,28,17,28,52,1l33-26l-33,31c-28,27-31,35-21,47c7,8,19,12,27,9c10-4,12,0,8,10
		c-8,21,20,31,41,14c9-8,14-9,10-3c-10,17,21,26,43,14c16-9,18-8,13,6c-4,11-3,15,5,10c6-3,13-2,17,3c3,6-10,13-30,17
		c-19,3-35,10-35,15s16,24,35,42c31,30,41,33,105,35C3202,3651,3210,3649,3211,3633z M2890,3575c8-9,8-15,2-15s-14-9-17-21
		c-5-15-10-18-18-10c-15,15-24,14-24-4c0-8,4-15,9-15c4,0,8-5,8-11s-9-8-22-3c-20,6-21,5-9-10c9-10,10-16,2-16c-6,0-11,5-11,11
		s-8,8-17,5c-16-5-16-5-2,6c9,7,14,19,12,26c-3,8,1,10,12,6c10-4,15-2,13,7s5,13,21,11c20-2,22,0,11,13s-10,14,6,8c17-6,17-5,5,10
		c-7,9-9,17-3,17C2873,3590,2883,3583,2890,3575z M2784,3458c-5-8-2-9,9-5c23,9,21-10-2-22c-15-9-18-7-16,12c3,26,3,27,11,27
		C2789,3470,2788,3465,2784,3458z M3300,3380c0-5-2-10-4-10c-3,0-8,5-11,10c-3,6-1,10,4,10C3295,3390,3300,3386,3300,3380z
		 M1850,3360c0-5-2-10-4-10c-3,0-8,5-11,10c-3,6-1,10,4,10C1845,3370,1850,3366,1850,3360z M1885,3359c-4-6-11-23-15-37
		c-6-22-9-24-14-10c-5,10,0,24,11,37C1886,3371,1895,3377,1885,3359z M3436,3325c5-11,11-11,37,0c50,20,114,28,134,16
		c16-9,14-10-12-11c-47-1-108-11-127-21c-9-5-23-6-31-3c-10,3-17-2-20-13c-4-14-5-13-6,5c0,13-6,32-12,43c-10,19-9,20,11,9
		C3422,3344,3433,3333,3436,3325z M3350,3282c3-28,11-57,17-63c8-8,8-18,1-34c-14-32-2-89,26-122l23-27l-29-48c-16-26-30-48-31-48
		s-25,9-54,20c-28,10-81,22-117,26s-66,10-66,13c1,3,23,35,50,71s72,111,100,168c30,62,55,102,63,99C3339,3335,3347,3310,3350,3282z
		 M3398,3315c-3-3-9,2-12,12c-6,14-5,15,5,6C3398,3326,3401,3318,3398,3315z M3668,3290c28-17,52-33,52-36c0-2-24,9-54,26
		c-37,20-57,26-62,19c-4-8-9-7-15,2c-6,10-9,11-9,2c0-7-10-13-21-13c-18,0-19,2-9,15C3569,3328,3610,3323,3668,3290z M2770,3278
		c0-5-14-8-31-8h-31l23,19C2754,3307,2769,3302,2770,3278z M3516,3301c-3-5-16-11-28-14c-22-6-22-5-4,8
		C3506,3312,3524,3315,3516,3301z M3698,3232c6-9,12-12,12-6c0,11,20-17,20-29c0-5-5-5-11-1c-7,4-7-1,1-16c6-12,10-23,8-25
		s-34,3-73,11c-129,25-159,19-227-44c-32-30-39-26-45,24c-3,30-1,35,12,30c43-17,49-18,28-2c-24,18-31,46-12,46c6,0,13-9,16-20
		s12-20,20-20c12,0,12,2-1,16c-9,8-16,22-16,30c0,19,59,44,107,45c21,0,47,4,58,9C3616,3288,3673,3261,3698,3232z M1857,3258
		c-3-8-6-5-6,6c-1,11,2,17,5,13C1859,3274,1860,3265,1857,3258z M2755,3251c-20-20-84-41-91-30c-3,6-2,14,2,19
		C2684,3257,2771,3267,2755,3251z M3768,3248c-3-7-11-13-18-13s-15,6-17,13c-3,7,4,12,17,12S3770,3255,3768,3248z M2536,3243
		c-8-8-86-33-86-28c0,24,17,35,53,35C2525,3250,2540,3247,2536,3243z M2780,3220c0-12-6-20-12-18c-18,3-110-23-127-36
		c-11-8-13-8-10,3c3,8,27,21,55,28c27,8,56,21,64,29C2770,3246,2780,3244,2780,3220z M2598,3218c19-19,15-24-27-37
		c-40-11-71-7-71,11c0,6-7,8-15,4c-29-11-14,5,18,19C2543,3233,2582,3234,2598,3218z M3760,3201c0-10,7-36,16-57c14-33,14-36,1-25
		c-9,7-22,32-31,57c-13,38-13,44,0,44C3754,3220,3760,3212,3760,3201z M2784,3174c9-8,17-25,18-37c2-31,3-39,16-70c7-16,12-30,12-33
		c0-2-24-4-54-4c-51,0-54,2-68,33s-14,30-2-19c4-15,2-24-5-24c-6,0-11,7-11,17c0,19-50,107-57,100c-3-3,5-18,16-34
		c12-15,25-42,30-60c9-29,7-33-24-47c-18-9-38-16-43-16c-6,0-24-11-41-26l-30-25l-21,40c-11,23-18,52-16,66c3,14,0,25-5,25
		s-9,5-9,10c0,7,7,7,21,0c11-6,25-9,32-7s-4,11-23,20c-22,9-28,16-17,16c10,1,15,6,12,11c-4,6,8,10,30,10c19,0,43,5,53,10
		c16,10,149,58,164,59C2766,3190,2776,3183,2784,3174z M2483,3173c-7-2-19-2-25,0c-7,3-2,5,12,5S2489,3176,2483,3173z M2620,3171
		c0-10-53-31-77-31c-8,0-11,5-8,10c4,6,10,8,15,5s12,0,15,6c4,5,13,8,21,5c7-3,16-1,19,4C2613,3182,2620,3183,2620,3171z M3608,3161
		c2-1,0-6-3-12c-4-6-14-8-22-5s-20,3-26-1c-22-14-37-11-38,5c0,12-3,10-9-5c-5-13-12-23-15-23c-4,0-3,5,1,11c4,8-1,9-17,4
		c-21-6-20-4,6,14S3556,3171,3608,3161z M3660,3150c0-13-11-13-30,0c-12,8-11,10,8,10C3650,3160,3660,3156,3660,3150z M2482,3136
		c7,4,8,2,4-5c-9-13-26-5-25,12c0,9,2,8,6-1C2469,3136,2477,3133,2482,3136z M3729,3133c27-16,41-33,26-33c-10,0-85,40-85,45
		C3670,3156,3700,3149,3729,3133z M3689,3111c42-22,55-36,65-68c7-21,4-23-31-24l-38-2l35-6c29-5,36-11,38-33c3-25,2-26-40-22l-43,4
		l42-11c37-9,44-15,53-47c18-67,17-68-61-76c-67-6-145-35-161-60c-5-7-15-3-30,10c-13,12-53,38-90,58c-67,37-89,63-66,78
		c7,4,10,8,6,8c-7,0,24,52,56,94c8,10,12,24,10,31c-7,18,22,38,90,61C3603,3133,3642,3134,3689,3111z M3800,3079c0-4-7-6-15-3
		c-8,4-15,10-15,15c0,4,7,6,15,3C3793,3090,3800,3084,3800,3079z M3809,3023c16-58,9-183-11-183c-4,0-5,12-2,26c5,21,4,25-6,19
		c-9-5-11-4-6,4c4,6,3,18-4,26c-15,18-9,145,7,145C3794,3060,3804,3043,3809,3023z M2830,3009c0-6-20-11-77-21c-5-1-36-14-70-30
		c-35-15-67-28-72-28c-16,0,0,38,19,43c14,3,17,0,13-12c-3-9,4-5,15,9c11,13,35,30,54,36C2747,3019,2830,3021,2830,3009z M1876,2993
		c16-21,18-37,4-28c-13,8-33,45-24,45C1860,3010,1869,3002,1876,2993z M2493,2969c4-3-28-6-70-7c-52-1-73,2-63,8c8,5,34,9,58,8
		c23,0,46,2,49,6c4,3,9,3,12-1S2488,2973,2493,2969z M3157,2976c45-8,95-22,112-30c16-9,39-16,51-16s18-4,15-10c-4-6-16-8-28-4
		c-81,26-107,32-107,24c0-6,7-10,15-10c20,0,85-32,85-42c0-5-9-4-19,2c-11,5-30,10-43,9c-17,0-12-5,19-15c23-8,44-22,47-30
		c7-19-23-18-48,1c-23,17-46,20-46,4c0-5,5-7,10-4c6,3,10-2,10-11c0-13,3-15,11-7s21,5,47-10c19-11,44-22,54-22c10-1,24-7,30-13
		c7-7,1-8-23-2c-84,19-90,19-34-4c67-28,90-32,79-14c-9,15,9,4,59-35c20-16,35-33,31-38c-3-5,1-9,10-9c23,0,90-83,156-195
		c34-57,67-109,74-114c19-16,106-41,143-41c66,0,72,64,22,245c-11,42-18,79-16,82c7,6,93-56,191-136c98-81,202-219,298-394
		c31-57,126-291,133-328l7-36l-194-6c-106-3-206-5-223-4c-16,1-122-1-235-6c-200-7-397,0-625,23c-60,6-138,13-173,16
		c-34,3-60,9-57,14c3,4-34,8-81,7c-71-1-88,2-95,16c-11,18-49,23-65,8c-12-12-149,11-137,23c5,5-2,6-17,3c-13-4-36-3-50,1
		c-24,6-23,7,10,13c31,7,30,7-15,7c-86-2-116,2-110,12c3,6,2,10-4,10c-5,0-11-6-14-12c-4-10-7-10-18,0c-7,6-28,12-47,12s-31,4-27,10
		s-18,10-59,10c-47,0-69,5-81,17c-10,9-20,12-23,7c-4-5-16-8-27-6c-11,1-45,6-75,9l-55,7l40,7c30,6,21,7-32,5c-40-2-73,0-73,5
		c0,4-9,5-20,2s-20,0-20,6s-5,11-11,11c-5,0-7-4-4-10c9-14-5-12-35,5c-25,14-25,14,15,16c22,0,51,5,65,9c26,9-72,3-118-6
		c-33-7-147,17-131,27c8,4-18,8-58,7c-39,0-79,4-89,10c-15,9-12,12,26,22c63,16,74,20,68,26c-3,3-42-4-86-15c-94-24-95-25-86-9
		c4,7,3,8-5,4c-6-4-37-2-69,5c-57,12-57,12-24,21c17,5,32,11,32,14s-9,2-20-1c-11-4-20-2-20,4s6,11,13,11c17,0,90,21,85,25
		c-1,2-34-3-73-11c-98-19-119-17-70,6c34,17,36,18,10,13c-16-3-41-10-54-15s-26-6-28-4c-7,7,55,31,127,52c71,20,73,31,3,15
		c-26-6-58-13-71-16c-13-2-32-7-43-10c-32-10-21,5,12,17c20,7,27,13,19,18c-16,10-5,16,79,47c63,23,64,24,21,18c-25-3-58-13-74-21
		c-55-27-51-13,4,16c30,16,51,29,45,29c-5,0-21-6-35-14c-37-21-43-18-24,11c10,14,20,21,23,16c3-4,24,2,46,15c45,26,40,31-8,8
		c-32-16-32-16,7,20c22,19,35,35,30,35c-5,1,7,9,26,20c41,23,32,27-10,5c-17-9-30-12-30-7c0,4,24,20,53,35c48,26,49,30,3,11
		c-42-17-2,18,47,42c48,22,47,24,0,8c-13-4-11,0,6,15c13,12,31,21,40,21c14,0,14,2,1,10s-13,9,0,14c45,14,72,26,53,22
		c-13-2-23,0-23,5s4,9,8,9c5,0,28,18,53,40c24,22,52,40,62,40c9,0,17,7,17,15c0,11,11,15,40,15c40,0,55,15,23,23c-10,3,2,6,27,7
		s37,4,28,7c-41,11-12,19,74,21c111,3,130,12,27,13c-102,1-61,17,51,20c47,1,72,4,55,7l-30,4l40,13c27,9,34,14,20,16
		c-11,1,5,6,35,10c43,5,36,6-34,3c-48-1-85,0-81,4c7,7,12,8,58,10c16,1,25,6,22,12c-7,12-5,12,115,13h95l-80,6c-52,4-73,9-60,13
		c11,4,30,6,41,4c12-3,73-7,135-11c87-5,125-3,161,8c27,8,46,11,43,7c-3-5,0-10,6-12c19-6,39-80,32-121l-6-39l-46,5
		c-25,3-75,12-111,21c-78,19-80,19-80,6c0-5,14-10,30-10c17,0,58-9,90-20c34-11,71-18,84-14c22,5,24,2,28-41l3-47l-40,6
		c-39,6-39,5-15-8c23-14,21-14-35-10c-33,3-82,10-108,16s-50,8-53,5c-5-5,75-26,130-33c82-11,150-39,188-76c21-21,43-38,49-38
		c8,0,21-26,32-60c1-3,7-12,14-20s26-34,43-58c17-23,49-55,71-70s55-39,73-54c31-25,37-27,107-22c127,10,164,46,161,153
		c-3,70-12,86-136,256c-88,120-105,148-126,214c-21,65-25,103-13,114C2889,2995,3073,2990,3157,2976z M2868,2901c11-42,23-86,27-98
		c7-22,4-23-39-23c-54,0-64,22-16,39c17,5,30,13,30,16s-15-1-34-9c-30-13-35-13-40,1c-10,26-7,33,17,34c17,1,15,3-8,8
		c-35,7-48,46-18,54c12,3,8,5-9,6c-16,0-28,6-28,11c0,6,0,13-1,18c0,9,38,19,72,19C2846,2977,2849,2971,2868,2901z M2774,2858l33-85
		l-66-30c-36-16-74-33-83-36c-10-4-18-12-18-19c-1-15-38-63-44-57c-3,2-14,27-25,56c-18,45-19,60-10,108c5,30,8,59,5,63
		c-6,10,82,69,115,77c23,6,28,2,38-26c15-44,15-45-19-59c-17-7-29-15-27-17c3-2,17,2,32,9c24,11,29,10,41-7s10-21-24-41
		c-42-26-39-32,4-9c26,13,30,13,42-2c19-26,15-9-22,82c-19,46-31,86-28,90C2728,2965,2740,2945,2774,2858z M1926,2923
		c-7-7-26,7-26,19c0,6,6,6,15-2C1924,2933,1928,2925,1926,2923z M1976,2923c-6-6-36,9-36,18c0,5,9,4,20-3
		C1970,2931,1978,2924,1976,2923z M2217,2944c-3-3-12-4-19-1c-8,3-5,6,6,6C2215,2950,2221,2947,2217,2944z M2019,2856
		c-2-2-28-6-57-10c-37-5-52-4-47,4c3,5,29,10,57,10S2021,2858,2019,2856z M3835,2793c18-27,13-79-6-67c-8,4-7,9,1,14s0,14-22,28
		c-25,15-53,22-101,23c-37,1-67,3-67,5c0,9,72,22,122,22S3821,2815,3835,2793z M3780,2744c0-20-5-24-32-25c-18,0-42-4-53-9
		c-13-5-1-6,32-3c50,5,53,4,63-21c15-40,13-46-17-47c-16-1-39-5-53-9c-18-6-11-8,29-6c51,1,54-1,64-28c7-21,6-30-4-37
		c-11-7-10-9,4-9c24,0,21-24-5-45c-22-16-22-16,5,0s28,16,38-15c16-44,30-37,24,12c-7,48,3,44,22-10c20-59,17-77-14-79
		c-16-1-47-3-70-5c-37-2-47,2-79,32c-32,31-84,119-84,142c0,5-11,26-25,48s-22,40-19,40c4,0-1,9-11,20c-21,23-30,60-15,60
		s22,2,57,14c18,6,57,9,87,8C3776,2768,3780,2766,3780,2744z M2881,2761c6,10,9,10,9,2c0-7,6-10,14-7s17,1,20-4s-19-9-49-10
		c-30,0-55,4-55,8c0,12,44,17,49,6C2871,2752,2876,2754,2881,2761z M2800,2740c-8-5-17-7-19-4c-3,3,1,9,9,14s17,7,19,4
		C2812,2751,2808,2745,2800,2740z M3816,2723c3-16,10-38,15-51s9-32,9-42c0-11,4-20,9-20c10,0,2,51-12,68c-7,9-7,16,0,23
		c8,8,14-6,22-47c7-33,14-70,17-82c3-15,1-21-6-17c-5,3-10,13-10,22s-2,14-5,11s-1-24,4-48c16-71-7-31-34,60c-29,97-38,150-24,150
		C3806,2750,3812,2738,3816,2723z M2770,2732c0-8-33-27-55-31c-5-1-13-12-18-23c-4-12-10-18-13-15c-10,9,11,37,42,58
		C2758,2742,2770,2745,2770,2732z M2879,2633c29-49,68-107,87-131c46-59,43-69-11-32c-57,39-86,79-120,160c-15,36-29,71-32,78
		c-3,6,1,12,9,12S2850,2681,2879,2633z M2985,2668c103-136,138-194,142-232c6-52-4-86-23-86c-20,0-85-30-103-47c-7-8-21-11-30-9
		c-9,3-38,10-64,17c-33,8-44,14-35,20s7,9-9,9c-32,0-118,90-149,156c-14,30-35,60-45,67c-26,16-24,26,4,20c20-4,21-3,5,10
		c-20,16-14,27,13,27c13,0,16,5,12,17c-4,11-3,14,6,9c14-9,54,22,45,35c-2,4,4,13,15,18c16,9,21,6,34-22c35-73,37-86,19-99
		c-10-7-22-20-27-28c-4-8,4-4,20,10c18,16,29,21,32,13c2-6,18-31,35-54c27-38,29-46,20-76c-13-41-5-44,10-3c12,36,34,35,31-1
		c-1-15,0-17,3-6c9,28,24,19,25-15c1-24,3-27,6-10c3,14,12,22,24,22c27,0,24,12-17,65c-37,49-36,60,6,68c21,4,20,4-7,6
		c-20,0-33-4-33-11c0-22-29,16-32,42c-2,19,2,25,20,26c32,2,41,14,9,14c-14,0-29-5-32-10c-8-13-25-3-25,16c0,8,6,14,14,14
		s18,4,21,10c4,6-4,6-21,0c-28-11-30-10-55,33c-9,15-4,17,44,17C2945,2720,2946,2719,2985,2668z M2554,2635c5-13,2-14-17-4
		c-32,17-33,19-10,19C2539,2650,2550,2643,2554,2635z M1276,2331c-3-4-38-11-77-15c-108-10-200-34-243-64c-46-31-48-40-15-64
		c40-30,385-115,619-153c159-26,205-35,270-55c62-18,145-33,375-65c55-8,168-28,250-45c192-40,379-67,580-85c88-8,210-21,270-29
		c170-23,255-24,840-13c365,7,484,17,505,42c25,30-24,68-122,95c-27,7-48,17-48,21c0,11,4,11,76-2c73-13,180-63,195-90
		c32-60-36-76-376-90c-148-6-337-15-420-19l-150-8l185,5c102,2,291,8,420,12c129,5,237,7,239,5c30-28-282-45-744-41
		c-479,4-764,27-1215,97c-69,11-183,26-255,35c-71,8-164,22-205,30c-280,53-382,70-690,114c-190,28-368,55-395,61
		c-198,43-405,120-419,155c-15,40,23,79,114,115c70,28,85,24,27-6c-60-31-79-66-51-94c37-37,342-146,359-128c3,2-19,10-48,17
		c-130,31-291,96-309,124c-18,29,25,61,128,96c87,28,111,33,199,41C1267,2341,1282,2341,1276,2331z M1260,2296c0-2-13-33-30-68
		c-16-34-30-71-30-81c0-13-5-17-17-13c-10,3-56,14-103,24c-92,20-154,47-145,63c12,18,80,46,140,57c33,7,69,13,80,16
		C1183,2299,1260,2301,1260,2296z M1320,2120c-8-5-28-9-45-9c-30,2-30,2,5,9C1331,2131,1337,2131,1320,2120z M4531,1929l44-20l-45,6
		c-45,6-93,35-58,35C4481,1950,4507,1941,4531,1929z M4617,1904c-3-3-12-4-19-1c-8,3-5,6,6,6C4615,1910,4621,1907,4617,1904z
		 M4660,1890c8-5,11-10,5-10c-5,0-17,5-25,10s-10,10-5,10C4641,1900,4652,1895,4660,1890z M4751,1855c34-13,69-33,78-44
		c12-14,21-17,28-10s19,3,37-13l27-23l-30-22c-16-13-49-25-73-28c-39-5-40-4-13,5c17,6,38,13,49,15c24,6,34,15,15,15c-12,0-12,2,0,9
		c8,5,11,16,8,25c-6,15-8,15-26-1c-11-9-18-20-15-24c6-11-23-25-66-32l-35-6l36,19c20,11,39,26,42,35c8,20,2,19-20-3
		c-10-11-27-22-37-26c-19-6-19-6-3,12c9,10,17,25,17,33c-1,21-31,54-65,72C4660,1887,4683,1883,4751,1855z M4625,1819
		c17-16,18-21,6-28c-21-14-102-24-111-14c-4,4-11,27-15,50l-7,42l54-15C4581,1845,4614,1830,4625,1819z"/>
	<path d="M2460,5315c-7-9-8-15-2-15c5,0,12,7,16,15c3,8,4,15,2,15S2467,5323,2460,5315z"/>
	<path d="M2286,5064c-23-23-20-30,4-9c11,10,20,20,20,22C2310,5084,2301,5079,2286,5064z"/>
	<path d="M2480,4616c0-2,8-10,18-17c15-13,16-12,3,4S2480,4624,2480,4616z"/>
	<path d="M2950,4456c0-2,7-7,16-10c8-3,12-2,9,4C2969,4460,2950,4464,2950,4456z"/>
	<path d="M2093,4530c-46-20-54-39-26-61c9-8,14-9,11-4c-10,16,5,34,48,60C2172,4554,2153,4556,2093,4530z"/>
	<path d="M2123,4298c-5-7-19-39-31-70c-16-43-18-59-9-64c7-4,9-4,5,0c-3,4,7,39,22,77C2139,4309,2141,4322,2123,4298z"/>
	<path d="M2274,4288l-19-23l23,19c21,18,27,26,19,26C2295,4310,2285,4300,2274,4288z"/>
	<path d="M2357,4208c-35-47-50-78-37-78c5,0,10,6,10,13s14,32,31,55s28,42,25,42S2370,4225,2357,4208z"/>
	<path d="M2300,4180c-6-11-8-20-6-20c3,0,10,9,16,20s8,20,6,20C2313,4200,2306,4191,2300,4180z"/>
	<path d="M2821,4019c-7-12-10-23-8-26c3-3,11,5,17,17s10,23,8,25S2828,4030,2821,4019z"/>
	<path d="M1934,4438c-26-30-45-60-21-35c11,13,17,15,17,6s8-5,22,9c15,15,19,25,12,32S1947,4453,1934,4438z M1960,4446
		c0-2-8-10-17-17c-16-13-17-12-4,4S1960,4454,1960,4446z"/>
	<path d="M3790,4111c0-5,5-13,10-16c6-3,10-2,10,4c0,5-4,13-10,16C3795,4118,3790,4117,3790,4111z"/>
	<path d="M1889,4273c-13-16-12-17,4-4c9,7,17,15,17,17C1910,4294,1902,4289,1889,4273z"/>
	<path d="M3417,3883c-4-3-7-11-7-17s5-5,12,2c6,6,9,14,7,17C3426,3888,3420,3887,3417,3883z"/>
	<path d="M2076,4003c-38-36-64-64-59-62c16,6,137,119,132,123C2147,4066,2114,4039,2076,4003z"/>
	<path d="M1968,3938c-45-53-62-78-55-78c2,0,27,29,55,65C2031,4003,2031,4011,1968,3938z"/>
	<path d="M2039,3933c-13-16-12-17,4-4c9,7,17,15,17,17C2060,3954,2052,3949,2039,3933z"/>
	<path d="M1979,3903c-6-7-8-13-3-13c4,0-5-13-21-30c-16-16-27-30-24-30s24,20,47,43c28,28,37,44,27,44
		C1997,3917,1985,3911,1979,3903z"/>
	<path d="M2648,3683c7-3,16-2,19,1c4,3-2,6-13,5C2643,3689,2640,3686,2648,3683z"/>
	<path d="M2441,3525c0-11,4-27,9-35c9-13,10-13,9,0c0,8-4,24-9,35l-9,20V3525z"/>
	<path d="M2480,3413c0-4,5-15,10-23c8-13,10-13,10,2c0,9-4,20-10,23C2485,3418,2480,3418,2480,3413z"/>
	<path d="M2631,3224c0-11,3-14,6-6c3,7,2,16-1,19C2633,3241,2630,3235,2631,3224z"/>
	<path d="M2074,3898l-29-33l30,25c17,14,34,28,40,32c5,5,5,8-1,8S2091,3915,2074,3898z"/>
	<path d="M3311,3719c59-57,92-82,59-45c-14,15-43,42-65,58C3265,3762,3265,3762,3311,3719z"/>
	<path d="M3384,3688c-4-7-4-10,1-6c4,4,17,2,29-4c19-10,20-10,7,5C3405,3703,3394,3704,3384,3688z"/>
	<path d="M3490,3646c0-2,8-10,18-17c15-13,16-12,3,4S3490,3654,3490,3646z"/>
	<path d="M3358,3623c7-3,16-2,19,1c4,3-2,6-13,5C3353,3629,3350,3626,3358,3623z"/>
	<path d="M3470,3569c13-6,32-17,41-25s40-17,70-21c30-3,63-10,74-15c14-7,13-4-5,11c-25,20-45,26-87,22c-12-1-37,8-55,19
		s-40,20-48,19C3452,3579,3456,3574,3470,3569z"/>
	<path d="M2076,3654c-3-9-4-19-1-22s5,1,5,9c0,11,2,11,10-1c5-8,10-10,10-5c0,6-4,16-9,23C2085,3669,2081,3668,2076,3654z"/>
	<path d="M2081,3594c0-11,3-14,6-6c3,7,2,16-1,19C2083,3611,2080,3605,2081,3594z"/>
	<path d="M1999,3485c-4-93-2-122,11-157c15-41,36-53,27-15c-3,12-9,58-13,102C2016,3507,2002,3548,1999,3485z"/>
	<path d="M1967,3483c-4-7-5-24-1-39c5-20,4-25-6-19c-8,5-11,2-7-11c17-61,18-84,4-78c-12,4-15-3-14-35c1-23,7-41,13-41
		c7,0,14-7,18-15c3-8,9-15,15-15c16,0,19,53,4,102c-7,27-12,52-9,56c3,5,2,30-2,58S1971,3490,1967,3483z"/>
	<path d="M1886,3207c3-10,9-15,12-12s0,11-7,18C1881,3222,1880,3221,1886,3207z"/>
	<path d="M2915,3620c3-5,1-10-5-10s-8-4-5-10c3-5,11-10,16-10c6,0,7,5,4,10c-3,6-1,10,5,10s8,5,5,10c-3,6-11,10-16,10
		C2913,3630,2912,3626,2915,3620z"/>
	<path d="M3120,3506c24-25,46-46,48-46c9,0-63,80-77,85C3082,3548,3095,3531,3120,3506z"/>
	<path d="M2855,3370c10-11,20-20,23-20s-3,9-13,20s-20,20-23,20S2845,3381,2855,3370z"/>
	<path d="M2840,3326c0-2,8-10,18-17c15-13,16-12,3,4S2840,3334,2840,3326z"/>
	<path d="M2830,3276c0-2,8-10,18-17c15-13,16-12,3,4S2830,3284,2830,3276z"/>
	<path d="M3394,3145c1-8,6-18,11-22c4-4,5-3,2,4c-4,6-2,13,5,15c8,3,6,6-4,10S3393,3154,3394,3145z"/>
	<path d="M2718,3093c7-3,16-2,19,1c4,3-2,6-13,5C2713,3099,2710,3096,2718,3093z"/>
	<path d="M2635,3030c-13-6-15-9-5-9c8,0,22,4,30,9C2678,3042,2662,3042,2635,3030z"/>
	<path d="M3691,3076c2-2,15-9,29-15c24-11,24-11,6,3C3710,3077,3677,3088,3691,3076z"/>
	<path d="M3715,2880c28-12,47-12,40,0c-3,6-18,10-33,9C3698,2889,3697,2888,3715,2880z"/>
	<path d="M3780,2972c0-23,4-42,8-42c10,0,8,67-2,77C3783,3010,3780,2995,3780,2972z"/>
	<path d="M2158,2893c12-2,32-2,45,0c12,2,2,4-23,4S2145,2895,2158,2893z"/>
	<path d="M2088,2853c7-3,16-2,19,1c4,3-2,6-13,5C2083,2859,2080,2856,2088,2853z"/>
	<path d="M2068,2823c7-3,16-2,19,1c4,3-2,6-13,5C2063,2829,2060,2826,2068,2823z"/>
	<path d="M2023,2793c9-2,23-2,30,0c6,3-1,5-18,5C2019,2798,2013,2796,2023,2793z"/>
	<path d="M2267,2772c40-9,80-25,90-35c16-16,15-17-26-13c-25,3-40,1-35-4s56-11,114-14c104-4,104-4,55,10l-50,14l49-4
		c40-3,46-2,30,7c-10,6-42,11-71,11s-48,3-42,6c11,7-69,27-141,35C2208,2788,2217,2785,2267,2772z"/>
	<path d="M1848,2773c6-2,18-2,25,0c6,3,1,5-13,5S1841,2776,1848,2773z"/>
	<path d="M1953,2763c9-2,25-2,35,0c9,3,1,5-18,5S1943,2766,1953,2763z"/>
	<path d="M3396,2752c-2-4,9-15,25-24c35-21,37-18,4,10C3412,2750,3399,2756,3396,2752z"/>
	<path d="M1828,2743c12-2,32-2,45,0c12,2,2,4-23,4S1815,2745,1828,2743z"/>
	<path d="M2125,2740c-3-5-15-10-26-10c-10,0-19-4-19-9c0-4,11-6,25-3c14,2,25,9,25,14s12,8,28,6c22-2,28-8,30-36c2-22-2-34-12-38
		c-9-3-13-10-10-15c7-12-15-50-44-75l-24-22l26,5c14,3,24,8,21,12c-2,4,6,18,19,32c12,13,21,30,18,37c-2,6,0,12,6,12
		c13,0,18,72,6,91C2187,2753,2133,2753,2125,2740z"/>
	<path d="M1738,2713c12-2,30-2,40,0c9,3-1,5-23,4C1733,2717,1725,2715,1738,2713z"/>
	<path d="M1938,2713c7-3,16-2,19,1c4,3-2,6-13,5C1933,2719,1930,2716,1938,2713z"/>
	<path d="M2265,2699c22-4,51-8,65-7c16,0,11,3-15,9c-22,4-51,8-65,7C2234,2708,2239,2705,2265,2699z"/>
	<path d="M2233,2683c9-2,23-2,30,0c6,3-1,5-18,5C2229,2688,2223,2686,2233,2683z"/>
	<path d="M2380,2680c14-4,34-8,45-8c16,0,15,2-5,8c-14,4-34,8-45,8C2359,2688,2360,2686,2380,2680z"/>
	<path d="M1653,2653c9-2,25-2,35,0c9,3,1,5-18,5S1643,2656,1653,2653z"/>
	<path d="M2265,2650c11-5,29-9,40-9h20l-20,9c-11,5-29,9-40,9h-20L2265,2650z"/>
	<path d="M1738,2633c7-3,16-2,19,1c4,3-2,6-13,5C1733,2639,1730,2636,1738,2633z"/>
	<path d="M1668,2623c7-3,16-2,19,1c4,3-2,6-13,5C1663,2629,1660,2626,1668,2623z"/>
	<path d="M2373,2616c0-10,9-13,31-10c17,3,64-3,104-14c39-10,72-15,72-11c0,7-102,34-166,44C2383,2629,2373,2627,2373,2616z"/>
	<path d="M1618,2613c6-2,18-2,25,0c6,3,1,5-13,5S1611,2616,1618,2613z"/>
	<path d="M1988,2613c7-3,16-2,19,1c4,3-2,6-13,5C1983,2619,1980,2616,1988,2613z"/>
	<path d="M2038,2603c6-2,18-2,25,0c6,3,1,5-13,5S2031,2606,2038,2603z"/>
	<path d="M2424,2593c8-8,129-53,133-50c10,10-23,30-71,42C2421,2602,2414,2603,2424,2593z"/>
	<path d="M1558,2573c7-3,16-2,19,1c4,3-2,6-13,5C1553,2579,1550,2576,1558,2573z"/>
	<path d="M2358,2563c7-3,16-2,19,1c4,3-2,6-13,5C2353,2569,2350,2566,2358,2563z"/>
	<path d="M1912,2527c-7-8-6-18,4-31c8-11,14-15,14-9c0,7-5,15-10,18c-8,5-7,11,1,21c6,8,9,14,6,14C1925,2540,1918,2534,1912,2527z"
		/>
	<path d="M2285,2530c-3-5-1-10,4-10c6,0,11,5,11,10c0,6-2,10-4,10C2293,2540,2288,2536,2285,2530z"/>
	<path d="M2518,2523c7-3,16-2,19,1c4,3-2,6-13,5C2513,2529,2510,2526,2518,2523z"/>
	<path d="M2624,2516c11-9,24-16,30-16c12,0,7,5-24,19C2606,2530,2606,2530,2624,2516z"/>
	<path d="M2488,2503c6-2,18-2,25,0c6,3,1,5-13,5S2481,2506,2488,2503z"/>
	<path d="M2545,2490c27-12,43-12,25,0c-8,5-22,9-30,9C2530,2499,2532,2496,2545,2490z"/>
	<path d="M2620,2480c8-5,22-10,30-10c13,0,13,1,0,10c-8,5-22,10-30,10C2607,2490,2607,2489,2620,2480z"/>
	<path d="M2595,2460c11-5,29-9,40-9h20l-20,9c-11,5-29,9-40,9h-20L2595,2460z"/>
	<path d="M1924,2428l-19-23l23,19c12,11,22,21,22,23C1950,2455,1942,2449,1924,2428z"/>
	<path d="M2351,2423c-1-17,16-25,25-12c4,7,3,9-4,5c-5-3-13,0-15,6C2353,2431,2351,2432,2351,2423z"/>
	<path d="M2476,2393c-6-14-5-15,5-6c7,7,10,15,7,18S2479,2403,2476,2393z"/>
	<path d="M1515,2295c-39-32-26-32,21,0c20,14,31,25,23,25C1551,2319,1532,2308,1515,2295z"/>
	<path d="M1448,2303c7-3,16-2,19,1c4,3-2,6-13,5C1443,2309,1440,2306,1448,2303z"/>
	<path d="M1581,2276c-13-14-21-32-18-43c4-15,5-14,6,5c0,12,4,22,9,22c4,0,13,9,20,20C1614,2307,1608,2305,1581,2276z"/>
	<path d="M2785,2280c11-5,27-9,35-9c13-1,13,0,0,9c-8,5-24,9-35,9h-20L2785,2280z"/>
	<path d="M2636,2263c-6-14-5-15,5-6c7,7,10,15,7,18S2639,2273,2636,2263z"/>
	<path d="M1748,2263c7-3,16-2,19,1c4,3-2,6-13,5C1743,2269,1740,2266,1748,2263z"/>
	<path d="M2850,2260c8-5,20-10,25-10c6,0,3,5-5,10s-19,10-25,10C2840,2270,2842,2265,2850,2260z"/>
	<path d="M1767,2230c-3-11-1-20,4-20s9,9,9,20s-2,20-4,20S1770,2241,1767,2230z"/>
	<path d="M2840,2231c13-11,29-17,34-14s-2,12-15,19C2823,2256,2811,2252,2840,2231z"/>
	<path d="M2928,2223c12-2,30-2,40,0c9,3-1,5-23,4C2923,2227,2915,2225,2928,2223z"/>
	<path d="M1655,2204c-13-10-15-14-4-14c20,0,43,16,32,23C1679,2216,1666,2212,1655,2204z"/>
	<path d="M1890,2200c-13-9-13-10,0-9c8,0,24,4,35,9l20,9h-20C1914,2209,1898,2205,1890,2200z"/>
	<path d="M2905,2203c17-3,35-9,42-14c7-6,13-6,17-1c8,13-18,22-57,21l-32-2L2905,2203z"/>
	<path d="M1398,2193c7-3,16-2,19,1c4,3-2,6-13,5C1393,2199,1390,2196,1398,2193z"/>
	<path d="M3074,2189c-3-6-2-15,3-20s9-1,9,11C3086,2203,3084,2204,3074,2189z"/>
	<path d="M1752,2173c6-8,21-10,37-7c44,11,42,19-4,19C1751,2185,1744,2183,1752,2173z"/>
	<path d="M1848,2183c7-3,16-2,19,1c4,3-2,6-13,5C1843,2189,1840,2186,1848,2183z"/>
	<path d="M1503,2173c-17-2-37-11-43-18c-10-12-3-12,41,1c30,9,56,18,58,20C1563,2180,1559,2180,1503,2173z"/>
	<path d="M1880,2170c-9-6-10-10-3-10c6,0,15,5,18,10C1903,2182,1899,2182,1880,2170z"/>
	<path d="M1658,2163c7-3,16-2,19,1c4,3-2,6-13,5C1653,2169,1650,2166,1658,2163z"/>
	<path d="M1608,2153c6-2,18-2,25,0c6,3,1,5-13,5S1601,2156,1608,2153z"/>
	<path d="M1568,2143c7-3,16-2,19,1c4,3-2,6-13,5C1563,2149,1560,2146,1568,2143z"/>
	<path d="M1418,2133c7-3,16-2,19,1c4,3-2,6-13,5C1413,2139,1410,2136,1418,2133z"/>
	<path d="M1485,2123c-11-3-24-10-30-15c-12-13,35,0,50,13c5,5,7,8,5,8C1507,2128,1496,2126,1485,2123z"/>
	<path d="M1560,2120c-13-9-13-10,0-9c8,1,26,5,40,9l25,8l-25,1C1586,2129,1568,2125,1560,2120z"/>
	<path d="M3106,2117c3-10,9-15,12-12s0,11-7,18C3101,2132,3100,2131,3106,2117z"/>
	<path d="M1705,2090c-11-5-37-9-57-9c-21-1-38-6-38-12c0-8,15-9,48-5c63,9,82,15,82,27C1740,2102,1732,2102,1705,2090z"/>
	<path d="M1558,2063c6-2,18-2,25,0c6,3,1,5-13,5S1551,2066,1558,2063z"/>
	<path d="M1735,2060l-20-9l20,1c11,0,31,4,45,8l25,8h-25C1766,2068,1746,2065,1735,2060z"/>
	<path d="M1755,2040c-4-6,6-7,27-3c44,8,48,13,10,13C1775,2050,1758,2046,1755,2040z"/>
	<path d="M2458,1903c6-2,18-2,25,0c6,3,1,5-13,5S2451,1906,2458,1903z"/>
	<path d="M2708,1853c6-2,18-2,25,0c6,3,1,5-13,5S2701,1856,2708,1853z"/>
	<path d="M2855,1840c3-5,8-10,11-10c2,0,4,5,4,10c0,6-5,10-11,10C2854,1850,2852,1846,2855,1840z"/>
	<path d="M2679,2903c-13-16-12-17,4-4s21,21,13,21C2694,2920,2686,2912,2679,2903z"/>
	<path d="M2568,2753c7-3,16-2,19,1c4,3-2,6-13,5C2563,2759,2560,2756,2568,2753z"/>
	<path d="M3677,2753c-3-5,17-8,43-8s46,3,43,8c-2,4-22,7-43,7S3679,2757,3677,2753z"/>
	<path d="M3590,2710c0-5,5-10,11-10c5,0,7,5,4,10c-3,6-8,10-11,10C3592,2720,3590,2716,3590,2710z"/>
	<path d="M3723,2673c9-2,23-2,30,0c6,3-1,5-18,5C3719,2678,3713,2676,3723,2673z"/>
	<path d="M3756,2591c-4-5,3-7,14-4c23,6,26,13,6,13C3768,2600,3759,2596,3756,2591z"/>
	<path d="M2873,2693c9-2,25-2,35,0c9,3,1,5-18,5S2863,2696,2873,2693z"/>
	<path d="M2760,2634c-17-15-29-28-27-31c2-2,19,10,37,27C2810,2667,2803,2670,2760,2634z"/>
	<path d="M2780,2595c-13-14-22-26-19-28c2-1,16,10,31,25s23,28,19,28S2793,2609,2780,2595z"/>
	<path d="M2938,2593c6-2,18-2,25,0c6,3,1,5-13,5S2931,2596,2938,2593z"/>
	<path d="M2826,2518l-18-33l21,25c18,22,26,40,18,40C2846,2550,2836,2535,2826,2518z"/>
	<path d="M2990,2530c-18-12-2-12,25,0c13,6,15,9,5,9C3012,2539,2998,2535,2990,2530z"/>
	<path d="M2866,2485c-3-9-6-22-5-28c0-7,5-1,10,12s8,26,5,28C2874,2499,2870,2494,2866,2485z"/>
	<path d="M3055,2450c27-12,43-12,25,0c-8,5-22,9-30,9C3040,2459,3042,2456,3055,2450z"/>
	<path d="M1258,2033c6-2,18-2,25,0c6,3,1,5-13,5S1251,2036,1258,2033z"/>
	<path d="M1323,2023c9-2,23-2,30,0c6,3-1,5-18,5C1319,2028,1313,2026,1323,2023z"/>
	<path d="M1393,2013c9-2,23-2,30,0c6,3-1,5-18,5C1389,2018,1383,2016,1393,2013z"/>
	<path d="M1465,2000c17-4,44-8,60-8c25,0,24,2-10,9C1464,2011,1423,2011,1465,2000z"/>
	<path d="M1568,1983c6-2,18-2,25,0c6,3,1,5-13,5S1561,1986,1568,1983z"/>
	<path d="M1621,1976c4-5,213-46,231-46c33,0-11,12-108,30C1630,1981,1614,1983,1621,1976z"/>
	<path d="M2260,1860c0-6,7-10,15-10s15,2,15,4s-7,6-15,10C2267,1867,2260,1865,2260,1860z"/>
	<path d="M2350,1840c0-8,219-35,226-28c2,3-22,8-53,12c-32,3-84,10-115,14C2376,1843,2350,1844,2350,1840z"/>
	<path d="M2660,1790c14-4,36-8,50-8c22,0,22,1-5,8c-16,4-39,8-50,8C2639,1798,2640,1796,2660,1790z"/>
	<path d="M2753,1773c9-2,23-2,30,0c6,3-1,5-18,5C2749,1778,2743,1776,2753,1773z"/>
	<path d="M2908,1753c7-3,16-2,19,1c4,3-2,6-13,5C2903,1759,2900,1756,2908,1753z"/>
	<path d="M3070,1740c0-5,4-10,9-10c6,0,13,5,16,10c3,6-1,10-9,10C3077,1750,3070,1746,3070,1740z"/>
	<path d="M3158,1743c17-2,47-2,65,0c17,2,3,4-33,4S3140,1745,3158,1743z"/>
	<path d="M3273,1733c9-2,25-2,35,0c9,3,1,5-18,5S3263,1736,3273,1733z"/>
	<path d="M3388,1713c7-3,16-2,19,1c4,3-2,6-13,5C3383,1719,3380,1716,3388,1713z"/>
	<path d="M3438,1703c12-2,32-2,45,0c12,2,2,4-23,4S3425,1705,3438,1703z"/>
	<path d="M3519,1697c5-5,19-7,32-5c20,3,19,5-9,9C3522,1704,3513,1703,3519,1697z"/>
	<path d="M3668,1703c6-2,18-2,25,0c6,3,1,5-13,5S3661,1706,3668,1703z"/>
	<path d="M1470,5534c-125-24-221-87-265-174c-28-56-35-86-36-157c0-52,0-52-47-74c-76-36-122-71-138-102c-15-27-14-31,7-53
		s29-24,129-24h107l49-39c60-47,116-76,177-92c76-19,222,24,321,94c29,20,96,148,96,184c1,13,23,28,76,52c79,37,158,108,152,139
		c-8,40-61,47-203,27c-39-6-41-5-74,45c-50,75-121,134-183,153C1578,5532,1507,5541,1470,5534z M1590,5513l25-7l-30-7
		c-24-5-19-7,25-9c30-1,48-4,40-7s-17-9-20-13s-23-17-45-28l-40-21l35,6c19,3,43,10,52,14c9,5,23,6,31,4c7-3,19,1,26,9
		c11,13,15,12,36-6l25-21l-29-21c-16-12-52-32-80-46c-45-21-66-40-43-40c17,0,122,47,117,52c-3,3,6,13,21,23c32,20,53,7,27-17
		c-23-21-125-73-136-70c-5,1-6-2-2-7c4-7,15-6,33,2c48,20,117,60,125,71c6,7,7,6,5-4c-3-8-24-26-48-39c-38-21-41-26-26-36
		c15-12,15-13,0-19c-9-3-19-4-24-1c-4,2-38-11-76-31c-38-19-58-32-45-28c13,3,26,1,30-5c9-14,170,41,215,72c20,14,27,16,24,6
		c-3-8-29-27-59-42c-30-16-43-25-29-21c14,3,42,15,63,25c20,11,37,15,37,10s-43-26-95-46c-56-21-99-44-105-56c-6-10-19-19-28-19
		c-10,0-26-6-37-13c-24-16-132-47-164-47c-13,0-54-10-92-21c-93-28-98-19-6,11c39,13,66,25,59,27c-7,3-33-2-59-11c-64-22-81-21-50,4
		c14,11,33,20,43,20c24,0,15,6-21,14c-23,5-27,4-15-5c13-9,12-10-3-5c-10,3-24,6-30,7c-7,0,16,11,51,23c64,24,99,45,52,32
		c-14-4-58-10-97-13c-72-6-73-5-73,19c0,23,6,26,98,45c53,11,113,28,132,36l35,15l-40-4l-40-5l40,15c22,9,42,16,45,16c3,1-5,5-17,10
		c-13,5-35,5-55-1c-41-11-51-11-44-1c3,5-23,8-57,8c-72-1-83,14-42,58c14,15,25,29,25,31c0,31,114,96,171,99c21,1,41,5,45,9
		C1485,5522,1557,5522,1590,5513z M1825,5320c-3-5-16-15-28-21c-19-9-19-8,3,10C1828,5332,1834,5335,1825,5320z M2054,5310
		c58-22,7-95-101-145s-374-138-468-154c-38-7-101-21-140-32c-55-15-96-19-190-18c-129,2-158,6-149,20c3,5,0,9-5,9
		c-36,0,19,55,118,117c49,31,65,29,19-2c-31-21-36-29-29-48c4-12,25-31,46-41c35-17,45-18,99-8c34,6,93,20,131,31
		c39,11,122,34,185,51c227,61,305,84,319,94c7,6,23,15,35,21c13,7,21,20,21,35c0,14,5,29,10,33c6,4-2,5-17,1c-17-4-28-2-28,4
		s-12,9-27,6c-20-4-25-2-18,5c6,6,42,15,80,20c39,4,73,9,77,10C2026,5319,2040,5316,2054,5310z M1357,5264c-3-3-12-4-19-1
		c-8,3-5,6,6,6C1355,5270,1361,5267,1357,5264z M1700,5251c-8-5-26-11-40-15c-21-5-20-3,5,9C1697,5260,1725,5265,1700,5251z
		 M1937,5243c3-6-9-19-26-27c-38-20-36-21-38,15c-2,28,0,30,29,27C1919,5256,1935,5250,1937,5243z M1273,5243c-13-2-33-2-45,0
		c-13,2-3,4,22,4S1285,5245,1273,5243z M1205,5230c3-5,2-10-4-10c-5,0-13,5-16,10c-3,6-2,10,4,10C1194,5240,1202,5236,1205,5230z
		 M1178,5087c-1-7,4-23,11-35c7-13,10-26,7-30c-10-10-58,12-70,31c-9,15-7,22,13,38C1162,5110,1182,5108,1178,5087z M1776,5075
		c-17-13-17-15-3-20c8-4,25-1,37,5s24,9,27,6c4-3-10-13-30-21c-42-17-51-30-11-15c49,19,38,8-21-21c-33-16-53-29-45-30
		c8,0-7-11-35-25c-35-16-41-22-20-17c17,3,45,12,63,20c48,20,39,5-10-17c-45-20-30-28,19-10l28,10l-24-18c-33-26-106-51-167-57
		c-28-2-64-9-78-15c-42-15-56-10-16,6c30,12,31,14,8,11c-15-2-25-1-23,3s-9,7-24,6c-16-1-27-4-24-8c2-5,2-8-1-8c-2,0-12-3-22-7
		c-12-4-15-3-10,5s-1,12-18,12c-25,0-48,19-24,21c7,0,4,4-7,9c-17,7-16,9,10,10c17,1,48,8,70,16c28,9,31,12,10,8
		c-81-15-125-20-125-14c0,4,25,12,55,19s57,17,60,22c8,12-2,11-59-6c-27-8-61-15-75-14c-32,1,86,34,189,53c86,16,233,60,270,81
		C1782,5094,1801,5094,1776,5075z M1247,5024c-3-3-12-4-19-1c-8,3-5,6,6,6C1245,5030,1251,5027,1247,5024z"/>
	<path d="M1687,5439c-9-5-21-7-27-4c-5,3-23-1-40-10c-16-8-32-14-34-13c-2,2-8-1-13-6s5-6,22-1c17,4,39,8,50,10c11,1,29,6,40,10
		c20,7,20,6,1-9c-11-9-24-16-30-16c-5,0-7-3-3-6c7-7,77,26,77,37c0,5-7,5-17,2c-11-4-14-3-9,5C1713,5452,1710,5452,1687,5439z"/>
	<path d="M1730,5380c-8-5-10-10-5-10c6,0,17,5,25,10s11,10,5,10C1750,5390,1738,5385,1730,5380z"/>
	<path d="M1662,5292c-8-6-2-9,17-9c17,0,28,4,25,9C1697,5302,1679,5302,1662,5292z"/>
	<path d="M1348,5203c7-3,16-2,19,1c4,3-2,6-13,5C1343,5209,1340,5206,1348,5203z"/>
	<path d="M1568,5193c7-3,16-2,19,1c4,3-2,6-13,5C1563,5199,1560,5196,1568,5193z"/>
	<path d="M1475,5175l-50-14l45,6c25,3,54,9,65,14C1566,5193,1531,5190,1475,5175z"/>
	<path d="M1460,5120c-8-5-10-10-5-10c6,0,17,5,25,10s11,10,5,10C1480,5130,1468,5125,1460,5120z"/>
	<path d="M1558,4963c7-3,16-2,19,1c4,3-2,6-13,5C1553,4969,1550,4966,1558,4963z"/>
	<path d="M1398,4893c7-3,16-2,19,1c4,3-2,6-13,5C1393,4899,1390,4896,1398,4893z"/>
	<path d="M1540,4880c-8-5-10-10-5-10c6,0,17,5,25,10s11,10,5,10C1560,4890,1548,4885,1540,4880z"/>
	<path d="M3446,5468c-3-13-6-45-7-73c-3-96-20-133-70-146c-33-8-33-9,8-5c28,3,46-1,54-10c6-7,14-52,17-99c2-47,9-85,13-85
		c5,0,9,36,9,80c0,56,4,82,13,84c6,3,26,8,42,12l30,7l-42,9c-60,13-66,30-58,149C3462,5487,3459,5514,3446,5468z M3465,5213l-10-23
		l-3,23c-2,12-8,26-13,32c-5,5-9,16-9,24c0,10,7,7,23-10C3471,5240,3473,5231,3465,5213z"/>
	<path d="M3560,5084c0-8,5-12,10-9c6,3,10,10,10,16c0,5-4,9-10,9C3565,5100,3560,5093,3560,5084z"/>
	<path d="M3955,4949c-8-12,11-29,33-29c19,0,10,34-10,38C3969,4960,3959,4956,3955,4949z"/>
	<path d="M4094,4895c-4-8-3-22,0-31c6-15,8-15,26,1c15,14,17,21,9,32C4114,4914,4101,4914,4094,4895z M4120,4880c0-5-4-10-10-10
		c-5,0-10,5-10,10c0,6,5,10,10,10C4116,4890,4120,4886,4120,4880z"/>
	<path d="M3990,4779c-54-16-127-70-151-113c-18-32-20-47-15-95c12-105,55-159,149-190c80-27,202,18,258,93c32,44,38,98,18,170
		C4223,4736,4087,4807,3990,4779z M3921,4660c53-24,212-27,272-6c26,10,37,10,37,2c-1-53-105-70-254-42c-85,17-116,30-116,51
		C3860,4685,3869,4684,3921,4660z M4060,4507c62,0,110,6,138,16c40,15,42,15,42-3c0-32-37-42-154-43c-143-1-229,10-222,28
		c2,7-2,16-10,19s-14,10-14,15s28,0,63-12C3949,4512,3990,4507,4060,4507z M3998,4463c-10-2-26-2-35,0c-10,3-2,5,17,5
		S4007,4466,3998,4463z"/>
	<path d="M3898,4503c7-3,16-2,19,1c4,3-2,6-13,5C3893,4509,3890,4506,3898,4503z"/>
	<path d="M872,4394c-2-24-18-40-47-47c-15-3-12-5,9-6c27-1,28-3,23-33l-6-33l15,28c13,25,19,27,52,22l37-6l-37,17
		c-29,12-38,22-41,47C875,4401,872,4405,872,4394z"/>
	<path d="M1590,4289c0-5,5-7,10-4c6,3,10,8,10,11c0,2-4,4-10,4C1595,4300,1590,4295,1590,4289z"/>
	<path d="M1466,4232c-3-6-1-14,5-17c15-10,25,3,12,16C1476,4238,1470,4238,1466,4232z"/>
	<path d="M4116,3985c4-8,10-15,15-15s9,7,9,15s-7,15-15,15C4116,4000,4113,3994,4116,3985z"/>
	<path d="M1590,3935c-5-84-12-99-60-122l-45-23l50,6c61,7,69,0,83-76l10-55l1,53c1,68,12,87,53,98l33,8l-40,4c-22,2-44,8-50,13
		c-5,5-15,38-21,72C1593,3971,1592,3972,1590,3935z"/>
	<path d="M1660,3940c0-5,5-10,10-10c6,0,10,5,10,10c0,6-4,10-10,10C1665,3950,1660,3946,1660,3940z"/>
	<path d="M4552,3877c-32-34-29-82,7-118c46-46,80-38,106,24c14,34,14,41,0,71C4641,3904,4588,3915,4552,3877z M4605,3870
		c3-5,11-10,16-10c6,0,7,5,3,12s-3,8,5,4c6-4,9-11,6-16c-3-4,2-13,10-20s15-17,15-23s-10-2-22,9c-42,37-56,45-62,36
		c-3-5,13-26,36-48c22-21,38-33,34-26c-4,6-2,12,3,12c14,0,14-6-1-29c-12-19-12-19-22,1c-6,11-14,19-17,17c-4-2-17,5-30,16
		c-12,11-19,14-14,6s4-12-1-8c-5,3-11,19-12,35c-2,22,3,32,15,35C4596,3881,4599,3880,4605,3870z M4616,3828l29-33l-32,29
		c-31,28-38,36-30,36C4585,3860,4599,3845,4616,3828z M4600,3786c0,4,5,3,11-3s8-17,4-23c-5-8-11-8-17-2s-16,8-23,6c-7-3-15,2-19,11
		c-3,9-2,13,4,10s10-1,10,6c0,8,4,8,15-1C4593,3783,4600,3781,4600,3786z"/>
	<path d="M4197,3854c-4-4-7-14-7-23c0-14,2-14,10-1s10,12,10-4s3-17,12-8c10,10,9,15-3,27C4211,3854,4201,3857,4197,3854z"/>
	<path d="M3875,3767c-8-20-15-41-15-46c0-6-18-20-40-31c-48-24-51-40-9-40h31l-7-45l-6-46l45,32c43,30,48,32,84,21
		c54-16,55-16,37,18c-14,26-14,34-1,64c17,41,13,46-31,46c-21,0-33,5-33,13s-9,22-20,32C3891,3802,3890,3802,3875,3767z"/>
	<path d="M3944,3555c16-47,62-144,68-145c4,0-9,35-28,78C3949,3563,3930,3596,3944,3555z"/>
	<path d="M3917,3529c8-16,17-28,19-26c7,6-18,57-27,57C3905,3560,3908,3546,3917,3529z"/>
	<path d="M1330,3521c-51-16-89-42-124-84c-20-24-36-47-36-50s19,3,43,13c65,29,146,36,185,16c36-19,72-81,72-124
		c0-70-59-114-173-127c-57-7-54-17,12-39c143-47,272,15,300,144c15,69,2,115-50,174C1492,3520,1414,3546,1330,3521z M1479,3496
		c34-18,99-88,111-122c56-148-107-298-260-239l-35,13l33,1c45,1,97,27,127,63c48,57,22,179-47,214c-33,17-138,16-183-2l-20-7l20,23
		C1276,3499,1414,3529,1479,3496z"/>
	<path d="M1715,3220c3-5,8-10,11-10c2,0,4,5,4,10c0,6-5,10-11,10C1714,3230,1712,3226,1715,3220z"/>
	<path d="M1641,3147c-14-17-4-47,15-47c22,0,29,29,12,46C1655,3159,1652,3159,1641,3147z M1665,3120c-5-8-11-8-17-2s-7,16-3,22
		c5,8,11,8,17,2S1669,3126,1665,3120z"/>
	<path d="M4360,2968c-6-35-16-84-22-110l-10-48h-44c-24,0-44-4-44-10c0-5,18-10,39-10c58,0,71-18,72-103l1-72l10,50
		c20,110,20,110,58,107c19-1,42,2,50,8c12,7,7,10-18,10c-18,0-47,7-63,16c-28,14-30,19-25,52c10,70,18,172,13,172
		C4375,3030,4367,3002,4360,2968z"/>
	<path d="M4586,2902c-3-6-1-14,5-17c15-10,25,3,12,16C4596,2908,4590,2908,4586,2902z"/>
	<path d="M1277,2808c-25-13-21-45,8-64c35-23,57-12,53,27C1335,2806,1305,2824,1277,2808z"/>
	<path d="M4560,2735c-27-33,16-83,46-53c12,12,14,20,5,36C4597,2744,4574,2752,4560,2735z M4600,2699c0-21-1-22-24-13
		c-16,6-22,35-9,47C4577,2744,4600,2720,4600,2699z"/>
	<path d="M606,2213c-6-14-5-15,5-6c7,7,10,15,7,18S609,2223,606,2213z"/>
	<path d="M820,2020c8-5,22-9,30-9c10,0,8,3-5,9C818,2032,802,2032,820,2020z"/>
	<path d="M878,2003c7-3,16-2,19,1c4,3-2,6-13,5C873,2009,870,2006,878,2003z"/>
	<path d="M928,1993c6-2,18-2,25,0c6,3,1,5-13,5S921,1996,928,1993z"/>
	<path d="M983,1983c9-2,23-2,30,0c6,3-1,5-18,5C979,1988,973,1986,983,1983z"/>
	<path d="M1038,1973c7-3,16-2,19,1c4,3-2,6-13,5C1033,1979,1030,1976,1038,1973z"/>
	<path d="M1078,1963c7-3,16-2,19,1c4,3-2,6-13,5C1073,1969,1070,1966,1078,1963z"/>
	<path d="M1118,1953c6-2,18-2,25,0c6,3,1,5-13,5S1111,1956,1118,1953z"/>
	<path d="M1183,1943c9-2,23-2,30,0c6,3-1,5-18,5C1179,1948,1173,1946,1183,1943z"/>
	<path d="M1243,1933c9-2,25-2,35,0c9,3,1,5-18,5S1233,1936,1243,1933z"/>
	<path d="M1308,1923c6-2,18-2,25,0c6,3,1,5-13,5S1301,1926,1308,1923z"/>
	<path d="M1363,1913c9-2,23-2,30,0c6,3-1,5-18,5C1359,1918,1353,1916,1363,1913z"/>
	<path d="M1438,1903c7-3,16-2,19,1c4,3-2,6-13,5C1433,1909,1430,1906,1438,1903z"/>
	<path d="M1500,1891c14-4,39-11,55-14l30-6l-30,14c-16,8-41,14-55,14l-25-1L1500,1891z"/>
	<path d="M1618,1863c6-2,18-2,25,0c6,3,1,5-13,5S1611,1866,1618,1863z"/>
	<path d="M1708,1853c12-2,32-2,45,0c12,2,2,4-23,4S1695,1855,1708,1853z"/>
	<path d="M1855,1835c100-17,125-17,60,0c-27,7-70,13-95,13C1784,1848,1791,1845,1855,1835z"/>
	<path d="M1981,1816c2-2,31-6,64-9c39-4,50-3,30,2C2044,1818,1973,1823,1981,1816z"/>
	<path d="M2128,1793c12-2,32-2,45,0c12,2,2,4-23,4S2115,1795,2128,1793z"/>
	<path d="M2223,1783c9-2,23-2,30,0c6,3-1,5-18,5C2219,1788,2213,1786,2223,1783z"/>
	<path d="M2305,1769c51-10,92-10,50,1c-16,4-43,8-60,8C2270,1778,2271,1776,2305,1769z"/>
	<path d="M2423,1753c15-2,37-2,50,0c12,2,0,4-28,4C2418,1757,2407,1755,2423,1753z"/>
	<path d="M2523,1743c9-2,25-2,35,0c9,3,1,5-18,5S2513,1746,2523,1743z"/>
	<path d="M2588,1733c7-3,16-2,19,1c4,3-2,6-13,5C2583,1739,2580,1736,2588,1733z"/>
	<path d="M2695,1715c33-8,94-16,135-19c64-5,57-3-45,14C2648,1732,2607,1734,2695,1715z"/>
	<path d="M2921,1686c2-2,29-6,59-9c36-4,46-3,30,3C2985,1688,2913,1693,2921,1686z"/>
	<path d="M3058,1663c12-2,32-2,45,0c12,2,2,4-23,4S3045,1665,3058,1663z"/>
	<path d="M3160,1650c8-5,24-9,35-9h20l-20,9c-11,5-27,9-35,9C3147,1660,3147,1659,3160,1650z"/>
	<path d="M3233,1633c9-2,25-2,35,0c9,3,1,5-18,5S3223,1636,3233,1633z"/>
	<path d="M3333,1623c15-2,37-2,50,0c12,2,0,4-28,4C3328,1627,3317,1625,3333,1623z"/>
	<path d="M3441,1616c7-7,219-9,226-2c4,3-47,6-112,6S3439,1618,3441,1616z"/>
	<path d="M3753,1603c15-2,37-2,50,0c12,2,0,4-28,4C3748,1607,3737,1605,3753,1603z"/>
	<path d="M4450,1600c0-5-44-11-97-13c-54-1-21-3,72-3c94,0,142,1,108,3c-35,2-63,8-63,13c0,6-4,10-10,10
		C4455,1610,4450,1606,4450,1600z"/>
	<path d="M3870,1593c106-7,328-7,323,0c-2,4-86,6-186,5S3845,1595,3870,1593z"/>
</g>
</svg>
