<?xml version="1.0" encoding="utf-8"?>
<!-- Generator: Adobe Illustrator 28.0.0, SVG Export Plug-In . SVG Version: 6.00 Build 0)  -->
<svg version="1.1" id="Capa_1" xmlns="http://www.w3.org/2000/svg" xmlns:xlink="http://www.w3.org/1999/xlink" x="0px" y="0px"
	 viewBox="0 0 564 828" style="enable-background:new 0 0 564 828;" xml:space="preserve">
<style type="text/css">
	.st0{fill:#FFFFFF;}
</style>
<g transform="translate(0.000000,828.000000) scale(0.100000,-0.100000)">
	<path class="st0" d="M2322,7730c-119-86-53-270,98-272c77-1,150,69,150,144C2570,7732,2427,7806,2322,7730z M2438,7702
		c34,1,88-26,102-51c15-28,12-77-5-111c-31-59-124-80-188-42c-30,17-32,22-32,76c0,39,5,60,15,66c8,6,11,10,7,10c-14,0,18,27,41,34
		c15,5,22,16,23,34c2,23,2,24,6,5C2410,7707,2418,7702,2438,7702z"/>
	<path class="st0" d="M2420,7630c-13-8-12-10,3-10c9,0,17,5,17,10C2440,7642,2439,7642,2420,7630z"/>
	<path class="st0" d="M3472,7364c-50-16-84-23-107-18c-62,11-211-80-321-198c-118-127-177-270-178-433c0-55,5-123,12-152l14-51
		l-62-77c-72-92-118-178-127-240c-3-25-8-45-11-45c-4,0-16,12-28,27l-21,26l-47-43l-48-44l7-58c4-32,4-58,1-58s-12,14-21,30
		c-9,17-19,30-24,30c-13,0-81-72-98-104c-11-22-14-44-9-87c6-54,5-60-31-116c-37-58-40-60-97-72c-32-7-59-11-60-9
		c-37,61-55,79-90,89c-108,29-269,39-309,18c-12-6-33-22-47-34c-30-27-84-46-108-38c-9,3-46,25-82,48s-85,47-109,54
		c-27,8-55,25-70,44c-75,89-108,119-157,143c-29,14-58,23-64,19s-19,0-28,8s-35,18-57,21c-22,4-68,17-103,29c-62,22-64,22-78,3
		c-26-36,18-122,79-155c62-32,124-99,137-146c7-25,10-48,7-52c-4-3-34,0-67,6c-71,14-107,2-128-42c-19-39-12-50,50-82
		c77-40,186-112,243-160c32-27,64-45,90-49c79-14,105-26,105-50c0-29,107-103,210-144c41-17,74-34,73-39c-1-4-20-39-42-78
		c-63-107-86-190-86-315c0-58,2-120,5-139l5-35l-123-69c-106-60-129-77-164-126c-52-71-149-172-210-217c-32-24-48-43-50-62
		c-2-21-11-30-38-38c-28-9-44-26-79-84c-42-69-43-74-29-99c9-14,18-57,22-95c11-113,25-162,66-224c34-53,36-61,23-74s-11-21,16-65
		c17-28,31-55,31-61c0-14,33-32,59-32c15,0,25-14,40-55c11-30,23-66,27-80c3-14,18-32,33-40c37-19,94-81,201-220
		c53-69,104-125,120-131c15-7,30-19,33-28c4-9,20-22,36-27c18-6,33-21,39-38c5-15,16-34,23-42c8-8,28-32,46-54l31-40l-8-195
		c-6-148-14-215-30-278c-12-46-19-93-16-106c8-33,71-101,110-120c43-20,98-21,139,0c78,39,161,147,208,272c13,34,26,62,29,62
		s18-32,35-71c30-72,40-81,99-94c22-4,27-10,23-25c-3-12,5-30,19-47c15-17,23-36,20-47c-3-12,6-32,23-51c24-28,29-43,35-121
		c6-84-6-336-22-487c-10-84,4-130,52-174c60-56,177-70,264-33c50,22,98,82,159,200l28,55l-2,190c-3,209,6,304,38,409
		c17,56,21,85,16,152c-5,95-28,150-83,201c-19,18-34,42-34,54s-9,36-20,54c-15,25-19,47-18,96c2,35-1,71-5,80c-6,12,7,24,60,55
		c37,21,97,69,133,105c98,100,155,206,202,377c29,107,32,376,4,502c-22,103-77,263-117,342c-16,31-29,65-29,75c1,33,76,168,102,180
		c20,10,34,8,88-14c107-43,210-33,262,24c47,52,64,174,39,283c-6,25-11,50-11,56s34,21,76,34l75,22l65,136c36,76,79,170,96,210
		c21,51,35,72,48,72c26,0,29-16,23-128c-7-115-8-116-94-160c-37-19-55-34-57-49c-4-27,31-63,61-63c22,0,24-6,36-91
		c7-51,18-105,23-121c10-29,47-46,69-33c8,5,9,1,5-13c-13-39,52-80,80-52c6,6,20,6,40-1c26-10,37-8,91,20c35,17,71,31,82,31
		c29,0,73,42,142,133c44,58,72,87,100,99c29,13,39,23,39,40c0,12,11,34,25,48c23,24,27,39,35,146c6,67,22,160,36,214
		c29,108,26,147-22,250c-30,65-51,90-74,90c-19,0-35,39-21,53c4,4-8,51-27,103c-26,70-40,94-53,94c-22,0-30,12-19,30
		c12,19-63,167-90,175c-28,9-27,67,2,107c29,42,88,178,88,206c0,14-18,40-45,68c-26,26-45,54-45,67c0,32-53,119-95,156l-37,32l12,92
		c17,125,12,171-17,175c-22,3-23,8-23,80c0,249-156,474-378,542C3697,7399,3567,7397,3472,7364z M3781,7344c209-62,359-276,359-513
		c0-52-2-59-25-69c-35-16-35-16-35,13c0,14-4,25-9,25c-4,0-6-11-4-24c4-21-2-28-43-50c-27-14-59-33-71-42c-21-15-22-15-33,28
		c-50,186-250,467-406,570c-73,48-71,51,29,73C3614,7372,3702,7367,3781,7344z M3406,7303c107-36,237-152,339-304s181-343,154-375
		c-15-18-23-10-39,41c-43,137-158,313-280,428c-91,86-162,134-256,172l-57,23l29,16C3333,7324,3346,7324,3406,7303z M3258,7204
		c22-15,21-15-56-92c-95-93-183-223-222-329c-33-88-37-79-15,29c24,118,95,250,180,336c40,39,77,72,82,72S3246,7213,3258,7204z
		 M3315,7141c-3-5-24-24-48-41l-42-32l44,41C3311,7149,3327,7160,3315,7141z M3360,7106c0-2-8-10-17-17c-16-13-17-12-4,4
		S3360,7114,3360,7106z M3722,6787l26-34l-31-18c-18-10-62-48-99-83c-46-44-72-63-83-58c-21,8-13,34,30,102c28,44,108,124,124,124
		C3692,6820,3707,6805,3722,6787z M4185,6720c4-6-9-10-32-10c-129,0-285-158-325-327c-16-65-32-70-25-8c12,113,128,269,239,325
		C4103,6730,4173,6740,4185,6720z M4190,6666c0-57-21-189-35-223c-8-18-21-33-29-33c-25,0-73-48-79-80c-4-19-21-40-48-60
		c-39-28-44-29-63-15c-12,8-40,27-64,42c-41,27-42,29-36,68c25,165,186,331,322,334C4188,6700,4190,6698,4190,6666z M3511,6487
		c-15-38-21-33-21,15c0,38,2,41,15,27C3517,6517,3519,6508,3511,6487z M2881,6429c-22-28-41-55-41-59c0-9,89-35,113-32s22-5-24-73
		c-22-33-42-70-45-82c-4-13-8-23-11-23c-5,0-105,27-131,35c-28,9,39,137,131,248C2926,6507,2933,6495,2881,6429z M2960,6393
		c0-48-7-53-56-36c-24,8-44,17-44,20s14,23,32,45l31,40l18-23C2951,6426,2960,6405,2960,6393z M3500,6383c0-22-2-25-10-13
		c-13,20-13,40,0,40C3496,6410,3500,6398,3500,6383z M4099,6287l-32-105l-48,26l-47,27l43,37c24,21,46,51,50,66c5,23,53,67,63,57
		C4130,6394,4116,6345,4099,6287z M3097,6287c151-77,399-58,607,44c66,33,66,33,66,18c0-5-15-15-32-21c-18-6-69-30-113-54
		c-99-51-170-67-305-67c-162,0-287,44-331,116c-31,52-22,62,21,24C3031,6327,3071,6300,3097,6287z M3857,6295c23-14,43-30,43-34
		c0-5-31-22-68-39c-37-16-99-51-136-77l-69-47l-56,30c-30,17-57,35-59,40c-5,15,94,86,168,121C3759,6327,3800,6328,3857,6295z
		 M3032,6265c54-45,157-70,293-69c66,1,139,6,162,11l42,11l-15-23c-20-30-40-35-157-35c-72,0-105,4-125,16l-27,16l25-21l25-21
		l-24-20c-28-24-70-25-141-4c-38,11-55,13-58,5c-9-27-22-7-22,35c0,33,5,51,18,60c15,12,15,12-5,7c-13-3-23-1-23,3c0,5-3,19-6,32
		C2986,6296,2995,6296,3032,6265z M3989,6153c-127-20-252-85-350-182c-41-42-91-96-111-120l-35-43l-39,25c-21,14-106,49-189,77
		c-82,29-155,55-162,58c-13,8,42,73,79,93c33,18,290,19,276,2c-6-7-20-13-33-13c-15,0-35-17-63-56c-23-31-42-61-42-65
		c0-5,12-15,28-21c27-11,132-59,143-65c10-6,101,118,96,131c-3,7-30,26-61,42s-56,32-56,37c0,17,42,4,90-28c29-19,54-35,57-35
		s32,25,64,55c37,34,95,72,154,101c80,40,95,51,95,71c0,24,0,24,72-14l72-37L3989,6153z M2830,6155c29-10,36-17,38-43
		c2-18,2-32-1-32c-2,0-32,12-68,26c-64,26-79,38-79,62C2720,6182,2766,6177,2830,6155z M3006,6120c15-18,9-52-17-88l-16-22l-116,42
		c-65,22-117,45-117,50c0,6,8,7,18,3c9-4,44-16,76-28c57-19,60-19,70-3c6,10,27,39,46,65c33,44,35,45,38,21
		C2990,6146,2998,6128,3006,6120z M3510,6110c0-22-4-40-10-40c-5,0-10,18-10,40s5,40,10,40C3506,6150,3510,6132,3510,6110z
		 M3103,6112c32-5,39-13,27-32c-7-11-16-11-49-2c-22,7-43,17-46,22c-10,16,6,32,24,24C3068,6120,3087,6115,3103,6112z M2730,6110
		c0-5-8-14-18-19s-24-21-32-36c-12-22-15-24-23-9c-7,12-2,23,19,45C2703,6120,2730,6129,2730,6110z M4126,6074
		c79-37,168-159,102-140c-13,4-47,9-75,13c-29,3-53,10-53,15s-30,38-66,73l-67,65h52C4054,6100,4089,6092,4126,6074z M4260,6091
		c0-6-4-13-10-16c-5-3-10,1-10,9c0,9,5,16,10,16C4256,6100,4260,6096,4260,6091z M3083,6068c35-13,30-34-7-31c-33,2-56,19-56,40
		c0,10,6,13,18,8C3047,6081,3068,6073,3083,6068z M4025,6026c36-35,65-68,65-73c0-6-24-13-54-17c-53-6-132-33-124-42c3-2,23,2,46,10
		c22,8,60,17,84,21c46,6,42,11,86-86c1-3-26-20-61-37c-74-37-167-128-167-164c0-21,42-78,57-78c3,0,28,20,54,45c48,45,106,76,166,89
		c30,7,33,5,52-33c12-22,21-44,21-49c0-4-21-14-47-20c-57-15-182-81-196-103c-8-12-2-30,22-72l32-56l33,19c68,41,149,62,260,67
		c98,5,110,4,123-12c7-11,13-27,13-37c0-25-34-23-99,7c-30,14-59,24-64,22c-20-6,116-59,169-64c47-5,57-10,73-37c10-17,22-42,26-54
		c6-22,5-23-17-12c-15,8-12,2,11-18c44-38,47-78,13-212c-12-52-26-140-29-195c-8-144-35-183-45-67c-10,102-77,200-172,250
		c-43,22-64,26-133,27c-46,0-83,1-83,1c0,1,7,18,15,38c21,50,8,46-14-5c-15-32-29-45-70-64c-28-14-67-36-86-51l-36-27l10,25
		c5,13,23,46,40,73c18,28,31,62,31,80c0,17,6,37,13,44c10,11,9,13-3,9c-8-3-20-26-26-54c-10-46-39-104-51-104c-3,0-3,19,0,43
		c6,37,5,39-5,17c-7-14-13-26-13-28c-1-1-16,5-33,14c-25,12-32,22-32,45c0,17-14,49-34,76c-80,115-90,140-88,227c1,45,10,112,21,151
		c11,38,18,71,16,73c-7,8-39-108-49-182l-12-80l-32,57c-30,54-55,77-68,64c-3-3,7-25,24-49c39-57,95-169,88-176c-3-3-6-1-6,4
		s-9,20-20,34c-15,18-18,20-13,6c4-11,2-17-3-13c-5,3-10-3-10-13s5-16,11-12c5,3,4-1-2-10c-7-8-10-18-7-21s-9-10-27-15l-34-9l-62,94
		l-61,94l74,119c41,66,74,130,74,143c0,31,52,109,103,152c47,40,40,47-10,9c-43-33-103-122-103-153c0-20-134-251-146-251
		c-2,0-22,27-44,60l-41,60l41,95c48,108,149,267,185,291c15,10,35,14,48,10c29-7,97,46,97,75c0,14,17,28,63,49c34,17,72,30,84,30
		C3952,6090,3984,6066,4025,6026z M2976,5994c137-47,294-101,349-120c111-38,157-68,89-58c-48,8-704,246-704,257
		C2710,6085,2721,6082,2976,5994z M1082,6020c23,0,46-13,87-48c71-61,174-133,229-161c41-21,43-23,25-36c-16-13-14-13,14-3
		c27,10,38,9,68-5c19-9,34-20,33-24c-1-5,2-21,7-36c5-19,3-33-7-45c-39-44-91-160-105-232c-6-32-6-32-37-20c-15,5-41,10-57,10
		c-23,0-50,16-102,59c-40,32-105,78-144,101c-40,24-73,47-73,51s-12,9-27,11c-34,4-39,19-14,49l19,24l85-18c46-9,96-17,109-17
		c25,0,48,16,48,34c0,6-5,5-12-2s-21-12-33-12c-18,0-23,10-33,59c-14,65-69,139-126,168c-41,21-75,52-93,87c-21,40-3,48,58,25
		C1028,6028,1064,6020,1082,6020z M4240,6050c0-5-5-10-11-10c-5,0-7,5-4,10c3,6,8,10,11,10C4238,6060,4240,6056,4240,6050z
		 M3027,5934c175-64,321-119,326-123c5-5-27-99-48-139c-1-1-28,7-60,18s-64,20-70,20c-17,0-91-168-79-179c5-5,31-16,57-26
		s50-22,53-26c10-16-27-71-44-66c-17,4-585,225-648,252l-34,14l21,35c12,20,24,36,27,36c4,0,30-9,59-20c39-15,53-16,61-7
		c15,18,74,139,70,142c-2,2-25,13-51,24s-47,23-47,27c0,13,72,134,80,134C2705,6050,2852,5998,3027,5934z M3054,6029
		c22-13,33-26,29-35c-6-17-11-17-54-3c-44,15-43,14-29,38C3013,6055,3011,6055,3054,6029z M3503,6014c29-15,54-28,56-30
		s-15-22-37-45l-40-42l-43,20c-24,11-54,24-66,27c-30,9-29,14,8,59C3417,6047,3434,6048,3503,6014z M1266,5952c21-16,46-37,54-47
		c15-18,14-18-15-1c-43,25-102,75-89,76C1222,5980,1245,5967,1266,5952z M2600,5928c0-5-9-25-20-46c-37-70-38-70-55-28
		c-17,40-17,42,29,94c19,22,21,22,33,6C2594,5944,2600,5932,2600,5928z M4248,5914c27-11,32-18,32-45c0-23-4-30-14-26
		c-8,3-38,2-65-2l-51-8l-25,43c-14,23-25,45-25,48C4100,5941,4196,5935,4248,5914z M2693,5860c9-8-48-130-61-130c-4,0-28,7-54,17
		l-47,16l16,31c9,17,27,48,39,68l24,37l37-15C2668,5875,2689,5865,2693,5860z M4313,5821c15-6,31-25,41-50c21-53,21-52-15-39
		c-48,17-186,5-243-20l-49-22l-24,22c-13,12-23,25-23,29c0,13,91,62,139,75C4195,5831,4280,5833,4313,5821z M2448,5742
		c19-37,23-86,8-110c-4-7-4-17,0-24s3-8-4-4s-15-14-23-52l-12-59l-102-11c-56-6-136-22-178-36c-43-13-77-20-77-16
		c0,23,45,102,79,142c42,47,82,71,139,83l34,7l-7-78c-4-57-3-75,4-64c6,8,11,35,11,60c0,63,16,85,25,34c4-21,11-50,16-64
		c7-19,8-13,4,25c-2,28-7,59-10,70c-4,13,7,40,30,78c20,31,38,57,40,57S2437,5763,2448,5742z M2049,5749c36-6,68-13,70-15
		s-8-13-23-25c-14-11-36-40-48-62c-11-23-21-43-22-44c-1-2-47,8-102,22c-54,14-116,25-136,25c-33,0-38,3-38,24c0,13,7,27,16,30
		c22,8,179,6,237-3c26-4,47-5,47-1c0,11-53,20-159,27c-82,5-91,8-76,20C1838,5763,1958,5764,2049,5749z M2164,5698c22-31,20-38-8-38
		c-14,0-41-9-60-21c-33-19-36-19-36-4c0,18,64,85,80,85C2145,5720,2156,5710,2164,5698z M3341,5624c15-14,32-23,38-20
		c5,4,15-3,21-14c10-18,9-21-7-18c-13,2-27-14-52-61c-28-53-32-67-22-87c8-18,7-31-1-49c-15-32-32-32-24,0c13,52-35,105-127,140
		c-26,10-50,22-53,27c-4,5,8,42,26,83l32,73l71-24C3282,5661,3326,5638,3341,5624z M3447,5640c-15-33-27-49-31-41
		c-7,11,41,107,50,98C3468,5695,3460,5669,3447,5640z M4327,5685c76-23,81-64,8-65c-16,0-39-3-50-6c-17-4-23,2-35,33
		c-8,21-16,41-18,46C4226,5705,4273,5701,4327,5685z M1730,5670c0-12-12-32-27-46l-28-26l35,20c37,21,96,20,83-2c-4-6,0-5,9,2
		c18,14,48,11,153-15c64-16,75-25,75-62c0-21-3-23-32-17c-53,11-168,17-133,7c17-5,44-9,60-10c41-2,61-16,49-33c-5-8-2-6,7,4
		c14,15,22,16,49,7c21-8,29-16,26-26c-4-8-9-26-12-39c-4-15-22-31-52-45c-25-12-80-49-123-81l-77-58l-118,46c-66,25-121,47-123,50
		c-2,2,1,28,8,57c11,51,13,53,54,64c48,14,137,67,137,83c0,6-12,3-27-8c-29-20-128-72-138-72c-12,0-3,30,29,95c38,76,51,94,81,112
		C1724,5694,1730,5693,1730,5670z M2190,5645c0-3-18-21-40-41s-49-51-60-69c-29-46-52-37-48,18c3,38,6,43,57,69
		C2147,5647,2190,5658,2190,5645z M2570,5590c0-22-4-40-10-40c-5,0-10,18-10,40s5,40,10,40C2566,5630,2570,5612,2570,5590z
		 M4457,5561l20-49l-86,1c-74,0-157-15-211-37c-10-4-22,6-37,33l-22,38l27,13c52,24,168,49,228,49l60,1L4457,5561z M2461,5577
		c-6-8-8-16-5-19s1-8-4-12c-13-8-11,28,2,36C2471,5594,2474,5591,2461,5577z M2589,5524l90-36l-40-51c-21-29-38-59-37-67
		s-19-44-45-79c-85-114-199-339-246-482c-18-54-43-56-86-6c-20,23-47,61-61,85l-25,43l55,59c30,33,69,84,88,114c18,31,37,56,41,56
		s14-15,22-32c14-32,14-32,15-7c0,15-9,38-20,52c-25,31-25,37,1,87c20,39,22,40,40,24c25-23,60-12,97,30c35,40,66,127,58,161
		c-8,31-35,58-52,51c-16-6-17-4-8,18C2484,5566,2487,5565,2589,5524z M3438,5488c14-23,14-31,2-69c-16-47-82-161-96-166
		c-5-2-17,10-27,26c-16,28-16,29,36,134c28,59,56,105,60,104C3418,5516,3429,5503,3438,5488z M2510,5491c16-30,12-61-14-118
		c-25-54-63-87-92-81c-27,5-28,25-2,31c61,16,109,115,73,150c-9,9-13,21-10,27C2475,5516,2499,5511,2510,5491z M2746,5464
		c26-7,28-12,15-33c-9-13-35-5-68,21c-16,13-5,31,14,24C2715,5472,2733,5467,2746,5464z M2400,5441c0-38-40-95-69-99
		c-20-3-23,0-17,15c4,10,10,34,13,53c8,56,11,60,43,60C2396,5470,2400,5467,2400,5441z M2468,5434c4-36-43-94-77-94c-20,0-20,0-1,33
		c10,17,21,46,24,62c2,17,5,31,5,33c1,2,11,2,24,0C2459,5466,2466,5457,2468,5434z M2317,5420c-6-46-31-90-50-90c-10,0-13,18-13,65
		l1,65h34C2323,5460,2323,5460,2317,5420z M2244,5427c9-36-11-94-34-100c-17-4-20,0-20,28c0,19-4,45-9,59c-11,27-4,34,35,35
		C2231,5450,2240,5442,2244,5427z M2716,5424c24-14,44-28,44-30s-11-22-25-44l-25-39l-50,31c-29,18-47,35-43,42c13,22,47,66,51,66
		C2670,5450,2691,5438,2716,5424z M3000,5363c63-25,143-56,176-69c34-13,76-23,94-22c32,3,37-2,112-106c43-60,77-115,74-122
		s0-15,7-18c7-2,5-5-4-5c-12-1-15-8-11-26c2-14,8-28,13-30c4-3,6-13,3-23c-5-14-4-14,4-3c7,10,7,21,0,34c-7,14-6,23,4,34
		c13,12,17,12,29-3s12-17,0-9c-11,6-13,4-8-9c4-9-6-41-23-75c-17-32-30-65-30-73c0-35-16-23-67,51c-29,43-85,115-123,159
		c-39,45-70,87-70,94c0,20-48,67-75,74c-36,9-84-14-106-50c-43-71-7-160,71-172c31-5,52-20,103-73c73-76,163-199,153-209
		c-4-3-24-7-45-7c-38,0-38,0-30-30c5-16,9-40,9-53c0-24,0-24-35,6c-35,31-98,48-146,39c-18-3-15-5,11-6c62-2,108-21,138-55
		s72-131,72-164c0-9-22-55-48-101c-40-70-55-87-92-105s-49-32-84-100l-41-78l-31,68c-78,172-154,444-169,601c-6,65-5,74,16,102
		c62,83-14,189-105,146c-51-24-73-79-52-129c8-18,17-57,20-87c25-200,115-502,221-746l28-63l-34-37c-19-21-44-51-56-68l-21-30
		l-25,23c-21,20-33,23-88,19l-64-3l66-2c52-2,70-6,84-22c18-20,17-22-21-96c-25-48-50-82-71-95c-36-22-43-37-43-85
		c0-90-136-142-425-165c-123-9-311-4-333,10c-6,3-12,33-13,66c-3,60-3,60,34,80c20,11,37,24,37,29c0,6-5,5-12-2c-24-24-28-10-28,88
		v99l85,138c86,139,94,160,73,181c-9,9-4,23,18,58c27,44,34,49,104,70c41,13,92,26,115,30c22,4,35,9,29,11c-7,2-42-3-79-12
		c-36-8-68-15-69-15c-2,0,6,20,18,45c20,42,25,46,86,64c36,11,74,22,85,25s-2,3-28,0c-27-3-66-12-88-19c-21-8-39-10-39-6
		c0,17,81,81,140,111c33,17,60,32,60,35c0,8-52-15-107-46l-51-29l-22,34c-17,29-19,39-10,56c10,18,18,20,58,16c39-5,41-4,14,3
		c-18,5-35,11-38,13c-10,11-16,106-7,111c6,4,41-10,79-29c66-34,69-28,5,8c-17,9-31,24-31,33c0,10,5,13,13,9c9-6,9-4-1,8
		c-11,14-10,17,6,22c13,4,23,23,31,59c16,73,91,253,143,346c61,106,140,211,160,211c16,0,81,93,71,103c-2,3-2,15,2,26l6,20l52-20
		C2862,5417,2937,5388,3000,5363z M3510,5365c0-42-15-45-43-10c-24,30-26,37-15,61l12,26l23-28C3500,5398,3510,5376,3510,5365z
		 M2174,5381c8-38,7-46-9-57c-31-23-42-16-59,33c-20,58-20,60,2,66C2151,5435,2165,5426,2174,5381z M2088,5373c25-65,25-72-3-79
		c-14-3-27-5-29-3s-15,23-29,46l-26,42l27,9C2070,5404,2077,5402,2088,5373z M3205,5302c-11-11-26,16-31,54l-5,39l20-44
		C3201,5327,3208,5305,3205,5302z M3512,5325l15,27l21-30c34-46,30-59-46-186l-36-59l-28,33c-34,41-34,43-7,80c24,32,25,26-26,96
		c-7,10-4,25,10,50l19,36l32-37l32-38L3512,5325z M2020,5328c26-43,25-52-7-67c-26-12-30-11-55,20c-34,40-35,53-5,67
		C1989,5365,1999,5362,2020,5328z M2680,5315c0-2-22-33-49-69c-100-132-200-334-238-478c-22-87-54-98-107-39c-18,20-18,21,5,30
		c19,7,30,25,48,82c47,146,175,386,253,475c29,33,31,33,59,19C2667,5326,2680,5318,2680,5315z M1757,5250c20,0,22-15,5-38l-17-22
		l-90,36c-94,38-105,46-105,80c0,21,3,21,98-17C1701,5268,1750,5250,1757,5250z M1931,5298c39-46,40-55,13-73c-26-17-27-16-57,14
		l-31,30l24,26C1909,5325,1907,5325,1931,5298z M2330,5313c0-5-9-21-19-37c-11-17-18-33-15-37c7-12-10-19-109-45c-86-22-70-26,36-8
		c41,7,47-2,20-35c-20-25-76-40-144-41c-53,0-56,3-65,86l-7,54l45,19c38,16,71,25,173,45C2281,5321,2330,5320,2330,5313z M3411,5258
		c22-27,23-47,5-70c-18-24-21-23-44,14c-18,29-19,33-5,55C3386,5285,3387,5285,3411,5258z M1900,5198c0-4-11-15-24-23
		c-26-18-50-11-76,20c-11,13-9,20,15,45l29,30l27-33C1887,5220,1899,5202,1900,5198z M3610,5223c0-19-64-140-91-172
		c-19-23-20-23-33-6c-12,16-7,28,35,98c27,44,51,88,55,99c4,15,9,17,20,7C3604,5243,3610,5231,3610,5223z M2020,5205
		c0-39-17-45-65-23l-26,12l38,23c21,13,41,23,46,23C2017,5240,2020,5224,2020,5205z M1818,5123c-26-28-39-29-69-4l-22,18l22,31
		l22,32l34-27l34-27L1818,5123z M3131,5180l24-20l-28,10c-42,15-55,13-82-15c-33-32-32-75,2-116l27-32l-24,13c-37,20-49,41-50,83
		c0,29,7,45,29,68C3064,5205,3098,5208,3131,5180z M3606,5104c-46-86-71-113-88-96c-8,8-4,19,16,43c15,18,41,59,57,92
		c23,45,33,57,42,48S3636,5161,3606,5104z M1958,5165c22-9,45-15,52-13s16-9,20-24c11-39-8-52-49-32c-17,9-39,13-47,10s-29,1-46,10
		l-30,16l23,24C1908,5184,1908,5184,1958,5165z M3124,5151c3-4-6-19-20-32c-15-13-30-35-36-49c-7-20-11-22-18-10c-15,23-12,67,6,84
		C3073,5161,3115,5166,3124,5151z M1742,5111c8-10,22-21,29-23c10-3,7-12-10-36c-22-31-23-31-52-17c-34,18-35,23-11,64
		C1718,5135,1720,5136,1742,5111z M3169,5106l23-24l-40-40c-38-38-41-39-56-23c-23,25-20,51,11,83C3139,5136,3141,5136,3169,5106z
		 M1878,5091c20-10,43-16,50-13c8,2,31-4,53-13c35-16,41-16,57-3c10,9,47,18,93,21c42,4,83,9,93,13c9,3,16,2,16-3
		c0-16-103-124-127-134c-13-5-28-20-33-34c-8-20-15-25-30-20c-12,4-31-1-48-13c-15-11-55-34-90-51c-35-18-65-39-68-49
		c-11-35-22-47-52-56c-17-5-34-16-37-25c-6-19-44-45-53-36c-12,12-14,133-2,188c13,67,57,157,100,210c17,20,34,37,36,37
		C1839,5110,1857,5102,1878,5091z M3241,5034c22-23,22-26,7-35c-22-12-45-35-51-51c-3-9-16-2-38,19l-33,33l29,30
		C3190,5067,3209,5068,3241,5034z M1730,5004c0-21-28-54-45-54c-39,0-51,25-32,66l17,35l30-23C1716,5016,1730,5005,1730,5004z
		 M3302,4959l19-25l-35-37l-34-37l-26,31c-32,38-32,40-1,73C3255,4996,3276,4995,3302,4959z M2835,4945c26-25,30-54,15-90
		c-8-18-9-17-9,8c-1,36-16,64-41,77c-28,15-55-2-80-48l-21-37l5,35c7,41,46,80,82,80C2800,4970,2822,4959,2835,4945z M4313,4963
		c24-3,52-19,73-38c32-31,33-33,20-61c-8-16-17-42-21-59c-4-25-4-26,5-10c5,11,14,33,20,48c19,54,27,17,26-120c-1-129-3-140-25-173
		c-46-67-133-160-148-160c-14,0-13,3,1,23c60,82,78,130,23,62c-77-95-156-152-192-139c-14,6-8,15,28,53c46,48,92,112,121,169
		c34,66,7,42-52-45c-33-49-84-111-113-137c-84-76-115-47-55,52c19,32,40,71,46,87c17,46,31,127,24,147c-8,25-31,23-40-4
		c-4-13-19-41-34-63c-18-26-30-58-34-94c-6-57-28-101-51-101c-20,0-23,7-41,112l-17,96l47,96c38,77,60,107,111,154
		C4137,4951,4213,4980,4313,4963z M1693,4910c-8-36-12-40-36-40c-41,0-51,14-38,52c11,34,12,35,46,24C1695,4937,1698,4932,1693,4910
		z M3670,4940c0-5-4-10-10-10c-5,0-10,5-10,10c0,6,5,10,10,10C3666,4950,3670,4946,3670,4940z M2130,4908c0-12,3-18,6-15
		c4,4,20-15,36-41c17-26,41-59,55-74c25-26,26-58,3-58c-17,0-121,102-116,114c2,6,7,20,10,31c5,15,4,15-5-2c-25-47-46-11-23,36
		C2114,4935,2130,4939,2130,4908z M2805,4920c3-5-3-10-14-10c-10,0-28-3-38-7c-16-6-16-5-4,10C2764,4932,2795,4936,2805,4920z
		 M3359,4878c14-24,13-28-17-62l-31-36l-20,29c-26,36-26,42,0,75C3316,4916,3339,4914,3359,4878z M2808,4888c7-7,12-22,12-34
		c0-18-6-22-34-22c-19,0-39-3-45-7c-20-11-12,34,9,55C2773,4903,2791,4905,2808,4888z M3631,4866c-7-8-10-19-8-23c3-5-1-17-9-28
		c-8-10-14-13-14-7c0,21,30,85,37,79C3640,4883,3637,4874,3631,4866z M2080,4846c7-9,10-16,6-16s22-26,58-57l64-58l-20-22
		c-18-19-20-31-16-88c4-38,1-79-5-96c-9-23-8-34,6-58c17-30,23-71,10-71c-5,0-52,38-106,85c-84,73-208,165-223,165c-2,0-22,11-44,25
		c-41,26-46,55-9,55c11,0,28,5,38,12c15,9,24,7,51-12l32-23l-23-13c-13-7-20-13-16-14c5,0,17,4,27,10c14,8,37,0,105-36
		c47-26,89-44,92-41s-28,22-68,42c-41,21-97,55-126,76c-62,46-62,70,1,99c22,11,59,30,81,44C2036,4879,2053,4877,2080,4846z
		 M1680,4843c0-31-21-53-50-53c-27,0-30,3-30,33c0,42,2,44,45,39C1667,4859,1680,4852,1680,4843z M3408,4798l21-32l-30-18
		c-16-10-29-22-29-28c0-19-16-10-33,19s-17,30,9,60c14,17,29,31,34,31C3384,4830,3397,4816,3408,4798z M2811,4808c6-57,4-63-21-66
		c-14-2-30-8-36-13c-23-19-34,57-12,79C2758,4824,2810,4823,2811,4808z M3585,4780c3-5,1-10-4-10c-6,0-11,5-11,10c0,6,2,10,4,10
		C3577,4790,3582,4786,3585,4780z M1668,4753c-2-23-8-29-35-31c-31-3-33-1-33,27c0,29,3,31,36,31S1671,4778,1668,4753z M3550,4748
		c-1-7-11-33-24-57l-23-44l-11,31c-9,27-8,34,15,56C3535,4762,3550,4767,3550,4748z M3571,4706c-11-25-25-46-32-46c-8,0-9,3,0,13
		c6,8,8,17,4,20c-3,4-1,7,5,7c7,0,11,3,10,8c-3,10,23,55,29,49C3589,4754,3583,4731,3571,4706z M3453,4715c23-48,22-50-16-73l-34-19
		l-17,32c-20,36-12,65,22,84C3433,4754,3435,4753,3453,4715z M2302,4703c15-15,28-35,28-45c0-17-6-15-45,13c-35,25-42,35-34,46
		C2266,4735,2270,4734,2302,4703z M2822,4693c3-34,0-39-32-55c-19-10-35-18-36-18s-4,19-8,42c-8,47,8,68,50,68
		C2815,4730,2819,4724,2822,4693z M3900,4720c0-18-30-70-40-70c-19,0-60,24-60,35c0,16,55,39,75,31c9-3,13-2,10,4s-1,10,4,10
		C3895,4730,3900,4725,3900,4720z M1680,4695c0-19-46-49-65-41c-8,3-15,17-15,31c0,23,4,25,40,25C1669,4710,1680,4706,1680,4695z
		 M2257,4678c33-23,42-38,22-38c-7,0-8-18-4-55c5-33,4-55-2-55c-25,0-74,24-83,39c-13,24-4,112,12,122
		C2220,4703,2220,4703,2257,4678z M3344,4683c4-9,2-19-3-23c-9-5-17-31-20-62c-2-19-33-5-42,18c-11,31-9,35,34,51l32,12l-37-5
		c-41-7-55,11-15,19C3334,4701,3338,4700,3344,4683z M1830,4624c0-32-98-136-178-189c-49-32-56-44-11-18c47,27,168,141,185,175
		l15,29l40-23c22-12,74-50,117-85c42-34,112-90,155-123c96-76,98-90,23-155c-30-26-66-69-80-95c-22-41-25-52-15-74c10-21,8-31-16-68
		c-24-38-38-47-114-77c-47-18-120-52-161-76c-87-50-142-68-174-55c-21,7-25,19-35,102c-15,119-35,206-62,269c-29,66-34,57-9-15
		c21-59,53-196,47-202c-2-2-48,16-103,41c-106,47-251,93-324,102c-25,3-49,8-53,12c-13,13,3,38,44,66c48,34,179,170,205,213
		c10,18,22,32,26,32s15-13,25-30c9-16,21-30,26-30c9,0-9,37-30,61c-13,15,0,25,129,99c79,45,169,99,202,120l58,38l34-20
		C1815,4637,1830,4626,1830,4624z M1690,4656c0-5-65-46-74-46c-3,0-6,6-6,13s15,18,33,24C1683,4660,1690,4661,1690,4656z M3498,4617
		c16-45,16-44-18-62c-40-21-44-20-58,18c-12,30-11,34,13,55C3470,4658,3484,4656,3498,4617z M2837,4591l10-49l-33-16l-33-15l-11,37
		c-5,20-10,42-10,49c0,11,44,41,61,43C2825,4640,2832,4618,2837,4591z M4060,4559c-13-47-49-123-55-117c-2,2,0,29,4,61
		c5,38,15,65,31,82c13,14,25,23,27,21C4070,4604,4066,4582,4060,4559z M3529,4508c1-20-57-54-69-41c-4,4-10,19-13,33
		c-5,22-1,27,31,41c34,14,38,14,44,0C3526,4532,3529,4517,3529,4508z M2229,4529c29-10,31-14,26-40c-5-21,0-39,16-65l22-36l-26-26
		c-26-25-27-25-47-7c-11,10-20,31-20,47s-7,40-16,53c-14,21-14,30-4,55c7,17,13,30,15,30C2196,4540,2211,4535,2229,4529z M3429,4503
		c29-112,18-187-31-211c-30-14-86-8-114,13c-16,12-15,16,14,62c34,52,38,76,23,117c-9,23-7,26,32,40C3414,4545,3418,4544,3429,4503z
		 M2865,4470c6-32,4-36-24-47c-29-11-31-10-41,23c-14,42-8,62,22,73C2849,4529,2855,4521,2865,4470z M3536,4402c-7-7-26-14-42-15
		c-26-2-29,2-32,28c-2,26,2,32,35,46l38,15l7-30C3546,4426,3544,4410,3536,4402z M2894,4375l15-45l-32-14l-32-13l-15,45
		c-13,41-13,45,5,58C2866,4429,2877,4423,2894,4375z M3548,4359c-3-33-22-49-61-49c-31,0-35,5-29,35c3,20,10,25,33,25
		c15,0,31,5,34,10C3538,4400,3550,4389,3548,4359z M2924,4286c3-13,8-31,11-38c5-13-31-38-54-38c-15,0-31,73-19,87
		C2880,4319,2917,4313,2924,4286z M3520,4259c-24-46-46-50-87-15c-28,24-28,25-9,43c15,14,31,17,67,15l48-4L3520,4259z M3248,4252
		c-7-18-16-32-21-32s-7,3-5,8C3256,4297,3269,4310,3248,4252z M3326,4232l12-44l-36,7c-57,11-60,14-42,60
		C3276,4297,3310,4285,3326,4232z M3401,4254c7-8,26-23,43-31l31-16l-30-13c-39-17-80-17-92-1c-14,17-24,63-16,71
		C3349,4276,3387,4270,3401,4254z M2970,4155c0-6-14-16-31-22c-28-11-31-10-40,14c-14,37-8,56,21,63c20,5,27,2,37-19
		C2964,4177,2969,4160,2970,4155z M2995,4100c15-29,15-30-14-45c-39-19-36-20-52,16c-11,28-10,33,6,45
		C2963,4137,2978,4133,2995,4100z M3031,4018c9-21,9-33,2-35c-5-2-19-11-29-19c-18-15-18-15,1-9c51,18,53,18,75-25
		c12-23,20-43,18-44c-6-6-71-26-74-24c-1,2-18,38-38,80l-35,78l22,15C3004,4057,3016,4054,3031,4018z M955,3910c-3-5-10-10-16-10
		c-5,0-9,5-9,10c0,6,7,10,16,10C954,3920,958,3916,955,3910z M1091,3903c0-11,3-13,6-5c7,17,38,15,151-9c163-35,362-100,362-119
		c0-12-39-20-100-21c-30,0-77-4-105-9c-45-7-41-7,40-9c50,0,116,5,148,13c31,7,57,10,57,6c0-5-21-27-47-50c-93-82-327-174-472-186
		l-66-5l-42,68c-48,79-60,120-69,226c-9,100,4,117,83,117C1080,3920,1090,3917,1091,3903z M3060,3687c73-286,63-533-30-735
		c-47-100-128-190-207-229c-64-31-66-29-84,57c-7,30-20,69-31,86c-10,17-18,48-18,69c0,20-13,70-30,112c-22,55-30,92-31,141
		c0,37-4,76-8,87c-5,12-3,25,6,33c8,8,13,36,13,72c0,55,2,61,34,85c30,23,36,34,42,81c5,47,10,56,40,75c20,12,41,38,53,64
		c22,50,88,150,134,202l32,36l28-62C3018,3827,3044,3748,3060,3687z M1998,3888c-78-119-78-119-78-226c0-86-3-102-17-111
		c-15-8-23,1-53,57c-33,62-38,68-83,80c-36,10-51,21-63,44c-8,16-14,31-12,32c39,24,294,146,305,146C2011,3910,2011,3907,1998,3888z
		 M3122,3829c23-46,22-56-4-62c-13-2-30-8-39-11c-13-6-20,3-33,40c-18,53-19,50,14,63C3094,3872,3103,3869,3122,3829z M3143,3748
		c9-7,19-27,23-43c5-29,3-31-35-41c-39-11-40-10-51,19c-15,44-13,57,13,67C3123,3762,3124,3762,3143,3748z M1777,3655
		c14-4,30-23,43-53c11-25,32-60,45-78c28-37,36-114,11-114c-8,0-17-7-20-16c-16-41,2-184,23-184c5,0,11-27,15-60s15-84,25-113
		c11-30,17-66,14-80c-4-20,6-46,36-97c23-38,49-73,57-78c14-8,14-13,4-32c-24-44-5-163,41-269l41-94l-16-59c-9-33-35-96-57-140
		c-27-55-36-79-25-75c9,4,21-2,30-15c9-12,18-19,21-16s-4,16-15,30l-19,25l36,74c20,41,42,92,48,113l12,39l16-41c15-37,15-45,1-94
		c-22-72-77-179-115-223l-32-36l-19,31c-10,17-16,35-13,41c10,15-8,10-40-11c-41-27-128-27-173,0c-25,15-32,26-27,38
		c22,58,38,180,45,337c5,99,11,190,15,203c6,18,3,22-12,22c-27,0-103,96-103,130c0,6,18,1,41-10c23-12,43-19,47-16c5,6-47,30-123,57
		c-68,25-57,41,44,66c50,12,112,32,139,43c41,18,51,27,61,59c26,90,26,92-141,329c-60,84-108,157-108,161s16,23,36,42
		c39,38,99,127,91,135c-2,3-15-12-28-33s-43-59-68-86c-36-39-56-51-110-66c-73-21-151-34-151-26c0,4,26,18,58,31
		c100,45,262,177,262,214c0,6,8,9,18,6C1747,3664,1765,3659,1777,3655z M3186,3610l11-45l-40-3c-46-4-52,1-60,45c-5,28-3,33,21,42
		C3162,3665,3174,3658,3186,3610z M3204,3519c13-64,10-69-38-69c-42,0-44,1-50,38c-10,61-9,62,38,62C3195,3550,3198,3548,3204,3519z
		 M1731,3272c144-207,152-222,144-273c-4-21-10-41-15-44c-4-3-19,14-33,37c-28,48-117,165-117,154c0-3,32-54,70-111l70-105l-37-16
		c-50-21-219-64-252-64c-21,0-42,21-116,117c-49,65-105,135-124,155l-33,38h36c31,0,39-6,62-40c15-23,35-40,45-40c25,0,24,15-2,52
		c-12,16-20,30-18,31c2,2,42,10,88,19c91,18,111,29,93,50c-14,17-54,119-49,125c3,2,25-25,50-60c43-60,93-113,72-77
		c-4,8-31,46-58,84l-51,68l25,18c13,10,21,21,18,25c-4,3-20-5-36-19c-39-33-134-50-236-43c-56,4-77,3-65-4c21-12,146-15,213-6l50,8
		l26-66c15-36,24-67,20-69c-3-2-41-12-84-21c-75-17-79-17-98,1c-20,18-21,18-34,1c-15-20-69-23-108-4c-20,9-32,29-52,85
		c-15,41-25,75-23,76c21,12,196,46,238,47c30,0,84,8,120,18s70,19,75,19C1611,3439,1667,3364,1731,3272z M3208,3377l3-58l-38,7
		c-21,4-39,7-39,8c-1,0-4,25-8,54l-7,53l43-3l43-3L3208,3377z M3186,3310c26-10,27-11,20-77c-8-75-11-82-28-65c-7,7-22,12-35,12
		c-19,0-23,5-23,33c0,57,12,107,26,107C3153,3320,3171,3315,3186,3310z M2550,3263c0-5-23-23-50-42c-57-39-67-53-15-21
		c19,12,35,19,35,15s-26-34-57-67c-102-106-212-169-333-189c-54-9-55-9-83,23c-24,28-26,29-12,6c16-27,16-28-1-28
		c-59,1-98,68-111,193l-6,57h30c29,0,30-2,40-67l11-68l-5,66l-5,66l173,6c162,5,323,27,359,48C2539,3272,2550,3272,2550,3263z
		 M1405,3144c15-25,25-47,23-49c-4-5-44,54-54,78C1362,3205,1378,3190,1405,3144z M3174,3157c15-11,16-18,5-62c-6-28-13-52-15-53
		c-1-2-18,2-36,8l-33,12l9,54c9,45,14,54,31,54C3147,3170,3164,3164,3174,3157z M2641,3020c6-14,14-48,16-76c5-50,5-51-43-94
		c-27-23-78-57-114-74c-62-30-70-31-190-30c-70,0-145,6-170,13l-45,13l75,22c144,42,290,132,385,237C2610,3092,2607,3092,2641,3020z
		 M3131,3035l29-16l-16-37c-9-20-18-42-21-49c-3-9-13-6-34,9c-30,22-30,26-8,86C3091,3054,3092,3054,3131,3035z M3098,2918
		c8-11,6-22-9-46c-19-33-19-33-44-15c-29,21-30,25-10,64c13,24,19,28,34,20C3079,2935,3092,2925,3098,2918z M2680,2856
		c0-33-124-118-159-109c-20,5-19,8,20,30c23,13,60,39,81,58C2663,2872,2680,2879,2680,2856z M3038,2848c17-17,15-32-9-62l-21-27
		l-24,22l-23,22l20,28C3003,2862,3019,2867,3038,2848z M2719,2745c12-44,34-111,48-150l27-70l-17-100c-10-55-17-107-17-115
		c1-28,20,12,20,42c0,34,16,44,29,19c14-25,0-136-35-279c-27-111-24-156,14-203c15-18,17-30,11-63c-12-61-11-258,2-371l12-100
		l-36-78c-43-93-72-111-179-110c-67,0-151,30-160,56c-3,7,2,68,9,137c8,75,12,205,11,327l-3,201l-27,21c-43,34-28,46,65,47
		c45,1,93,6,106,11c18,7-6,8-80,5l-105-4l-27,31c-42,50-31,57,105,64c142,8,143,9,194,111l34,71l-90,235c-81,211-89,236-74,245
		c10,6,45,31,78,56c34,26,62,46,62,45C2697,2826,2707,2789,2719,2745z M2975,2770c18-20,18-21-10-50c-16-17-31-30-34-30
		s-12,12-18,27c-11,24-10,30,9,50C2948,2795,2952,2795,2975,2770z M2155,2737c27-6,116-12,197-12h146l-5-25c-2-14,0-50,6-80
		c7-30,13-62,14-70c3-24-67-49-157-56c-78-6-86-5-92,12c-11,31-35,53-50,47c-9-3-12-13-9-24c9-28-20-25-86,9c-60,30-66,42-68,143
		c-1,58,12,84,39,74C2098,2751,2127,2744,2155,2737z M2910,2688c0-15-66-66-74-57c-2,2-6,18-9,36c-5,28-2,34,25,52c30,18,33,18,45,3
		C2904,2713,2910,2697,2910,2688z M2614,2472c95-248,93-230,33-330l-32-54l-168,4c-136,2-170,6-177,18c-5,8-28,58-51,110
		s-64,144-91,204c-36,82-44,106-30,100c9-4,39-14,66-23c46-15,50-19,81-86c35-78,59-105,77-87c8,8,4,27-15,70c-15,33-27,63-27,68
		s34,10,76,12c43,2,97,11,124,21l48,18l22-61c28-76,99-216,111-216c5,0-9,35-30,78c-59,118-113,270-118,337c-4,42-2,57,5,50
		C2524,2700,2567,2595,2614,2472z M2816,2665c7-29,0-55-16-55c-13,0-32,49-26,67C2783,2699,2809,2692,2816,2665z M2268,2447
		c46-115,46-117,18-72c-27,42-69,155-58,155C2232,2530,2250,2492,2268,2447z M2910,2209c21-41,24-85,5-83c-17,2-35,47-35,87
		c0,20,2,37,5,37C2887,2250,2899,2232,2910,2209z M2896,2003c27-67,27-92,0-51c-23,35-46,145-45,213l2,60l9-79
		C2867,2102,2882,2038,2896,2003z M1835,1990c20,0,52,7,72,15c45,19,40,20,58-15c20-38,20-37-17-60c-71-43-164-13-207,67
		c-11,22-11,22,24,8C1784,1997,1815,1990,1835,1990z M2873,1804c12-4,15-42,16-228l2-223l-42-81c-69-136-110-172-207-186
		c-49-7-126,20-162,55c-29,30-35,54-8,31c43-35,200-32,256,4c22,14,25,14,38-3s14-16,8,10c-5,20,3,49,26,102c30,69,34,74,54,64
		s20-9-1,9c-28,25-34,68-40,279l-4,161l23,5c13,2,24,5,25,6C2858,1809,2865,1807,2873,1804z"/>
	<path class="st0" d="M4081,6878c0-9-4-25-7-35c-5-14-4-15,5-7c7,7,11,22,8,35C4085,6884,4082,6887,4081,6878z"/>
	<path class="st0" d="M4038,6753c7-3,16-2,19,1c4,3-2,6-13,5C4033,6759,4030,6756,4038,6753z"/>
	<path class="st0" d="M3890,6430c-45-45-13-130,49-130c35,0,71,40,71,77c0,29-17,63-31,63c-6,0-7-4-4-10c10-16-14-50-37-50
		c-18,0-20,4-15,35C3929,6455,3919,6459,3890,6430z"/>
	<path class="st0" d="M2784,6285c-14-25-24-51-21-59c3-7,28-18,57-23l51-10l25,48c13,27,24,53,24,58c0,7-81,31-105,31
		C2813,6330,2799,6310,2784,6285z"/>
	<path class="st0" d="M3715,6279c-22-11-51-28-65-39l-25-20l27-24l27-24l85,41c46,23,85,45,85,48c1,7-66,39-82,39
		C3760,6299,3737,6290,3715,6279z"/>
	<path class="st0" d="M3579,6184c-10-13-10-17,2-25c37-25,45-27,62-14c17,12,16,14-9,34C3602,6204,3596,6205,3579,6184z M3639,6163
		c1-1,0-6-4-12c-4-7-15-5-31,6c-19,12-22,18-12,24c7,4,19,3,28-4C3628,6171,3637,6165,3639,6163z"/>
	<path class="st0" d="M3845,5870c-3-6,1-7,9-4c18,7,21,14,7,14C3855,5880,3848,5876,3845,5870z"/>
	<path class="st0" d="M4192,5314c-15-7-68-109-73-141c-5-25-2-26,70-17c90,11,237-22,304-69c16-10,30-17,33-15c7,8-17,108-37,156
		c-26,59-82,85-199,89C4243,5318,4199,5317,4192,5314z M4365,5296c76-20,94-33,116-83c11-25,18-47,16-49s-28,6-58,18
		c-45,18-75,22-175,22l-122,1l24,47c13,25,29,48,36,51C4227,5313,4316,5310,4365,5296z M4434,5169c55-22,88-50,75-64
		c-3-3-30,6-60,19c-70,32-175,50-256,43c-44-3-63-1-60,6c6,20,49,26,147,23C4352,5194,4389,5187,4434,5169z"/>
	<path class="st0" d="M4203,5264l-21-29l92-1c68,0,104-6,144-21c28-12,52-19,52-17c0,3-6,17-14,33c-20,38-59,53-152,59
		C4224,5292,4223,5292,4203,5264z"/>
	<path class="st0" d="M4587,5176c15-13,30-23,32-20c5,4-41,43-52,44C4563,5200,4572,5189,4587,5176z"/>
	<path class="st0" d="M970,6025c13-14,26-25,28-25c3,0-5,11-18,25s-26,25-28,25C949,6050,957,6039,970,6025z"/>
	<path class="st0" d="M1024,5986c11-9,24-16,30-16c12,0,7,5-24,19C1006,6000,1006,6000,1024,5986z"/>
	<path class="st0" d="M1095,5941c17-18,42-40,56-48c23-14,64-86,83-143c3-11,5-11,5,3c1,22-56,137-68,137c-4,0-30,19-57,42
		C1075,5965,1071,5967,1095,5941z"/>
	<path class="st0" d="M1068,5623c7-3,16-2,19,1c4,3-2,6-13,5C1063,5629,1060,5626,1068,5623z"/>
	<path class="st0" d="M1180,5588c42-42,121-109,95-79c-16,18-48,47-70,64S1172,5597,1180,5588z"/>
	<path class="st0" d="M1318,5473c7-3,16-2,19,1c4,3-2,6-13,5C1313,5479,1310,5476,1318,5473z"/>
	<path class="st0" d="M1368,5463c7-3,16-2,19,1c4,3-2,6-13,5C1363,5469,1360,5466,1368,5463z"/>
	<path class="st0" d="M3264,5572l-21-48l25-18l24-19l-17,26c-13,21-14,30-4,49c17,33,17,33,39,13c11-10,20-14,20-9c-1,9-35,54-42,54
		C3286,5620,3275,5598,3264,5572z"/>
	<path class="st0" d="M1760,5595c-7-9-11-17-9-20c3-2,10,5,17,15C1782,5614,1778,5616,1760,5595z"/>
	<path class="st0" d="M2661,5426c2-2,15-9,29-15c24-11,24-11,6,3C2680,5427,2647,5438,2661,5426z"/>
	<path class="st0" d="M2647,5403c-15-14-5-33,25-49c30-15,32-15,45,2c7,10,13,25,12,33c0,9-5,5-10-9c-13-33-13-32-43-18
		c-19,8-26,17-23,30C2658,5411,2657,5414,2647,5403z"/>
	<path class="st0" d="M3475,5000c-3-5-2-18,4-27c7-14,9-12,8,10C3485,5013,3484,5014,3475,5000z"/>
	<path class="st0" d="M2645,4463l-38-48l43,43c23,24,40,45,38,48C2685,4508,2666,4489,2645,4463z"/>
	<path class="st0" d="M2593,4390c-5-17-14-20-72-22c-61-1-62-1-21-7c76-10,105-3,105,25C2605,4415,2600,4417,2593,4390z"/>
	<path class="st0" d="M2525,4330c-49-45-86-70-106-71c-17-1-19-3-6-6s17-15,17-53c0-44-7-60-66-147c-37-54-60-91-51-83
		c8,8,40,52,71,98c49,73,56,89,56,132c0,38,4,50,15,50c8,0,15,7,15,15c0,9,16,25,35,36c19,12,35,25,35,30
		C2540,4342,2538,4342,2525,4330z"/>
	<path class="st0" d="M2275,3930c-10-11-16-22-14-24s12,7,22,20C2305,3955,2300,3958,2275,3930z"/>
	<path class="st0" d="M2194,3828l-19-23l23,19c21,18,27,26,19,26C2215,3850,2205,3840,2194,3828z"/>
	<path class="st0" d="M2415,3805c-25-12-26-14-5-9c28,7,60,23,45,23C2450,3819,2432,3813,2415,3805z"/>
	<path class="st0" d="M2154,3778l-19-23l23,19c21,18,27,26,19,26C2175,3800,2165,3790,2154,3778z"/>
	<path class="st0" d="M2245,3755c-25-12-26-14-5-9c28,7,60,23,45,23C2280,3769,2262,3763,2245,3755z"/>
	<path class="st0" d="M2185,3730c-3-6,1-7,9-4c18,7,21,14,7,14C2195,3740,2188,3736,2185,3730z"/>
	<path class="st0" d="M2130,3718c0-9-20-28-44-42c-25-15-48-32-52-39c-6-8-3-8,9,1c9,8,21,11,27,7c5-3,10,0,10,7s16,22,35,33
		c26,15,32,23,25,35C2132,3733,2130,3733,2130,3718z"/>
	<path class="st0" d="M2293,3633c15-2,39-2,55,0c15,2,2,4-28,4S2277,3635,2293,3633z"/>
	<path class="st0" d="M1994,3608l-19-23l23,19c21,18,27,26,19,26C2015,3630,2005,3620,1994,3608z"/>
	<path class="st0" d="M2208,3623c6-2,18-2,25,0c6,3,1,5-13,5S2201,3626,2208,3623z"/>
	<path class="st0" d="M2158,3613c7-3,16-2,19,1c4,3-2,6-13,5C2153,3619,2150,3616,2158,3613z"/>
	<path class="st0" d="M2118,3603c7-3,16-2,19,1c4,3-2,6-13,5C2113,3609,2110,3606,2118,3603z"/>
	<path class="st0" d="M2069,3552c-9-26-19-56-23-67s0-7,9,8c22,38,46,107,37,107C2088,3600,2078,3578,2069,3552z"/>
	<path class="st0" d="M2016,3425c-9-26-7-32,5-12c6,10,9,21,6,23C2025,3439,2020,3434,2016,3425z"/>
	<path class="st0" d="M3925,4590c3-5,14-10,23-10c15,0,15,2,2,10C3930,4603,3917,4603,3925,4590z"/>
	<path class="st0" d="M4080,4476c0-2,7-7,16-10c8-3,12-2,9,4C4099,4480,4080,4484,4080,4476z"/>
	<path class="st0" d="M2039,4773l-34-38l38,34c34,33,42,41,34,41C2075,4810,2058,4793,2039,4773z"/>
	<path class="st0" d="M1970,4719c-22-18-22-19-3-10c12,6,25,16,28,21C2004,4745,1998,4742,1970,4719z"/>
	<path class="st0" d="M1389,4294c-13-14-64-52-114-85c-117-77-143-97-75-58c72,41,169,110,199,143c14,14,22,26,19,26
		C1416,4320,1403,4308,1389,4294z"/>
	<path class="st0" d="M1081,3854c0-11,3-14,6-6c3,7,2,16-1,19C1083,3871,1080,3865,1081,3854z"/>
	<path class="st0" d="M1072,3795c0-16,2-22,5-12c2,9,2,23,0,30C1074,3819,1072,3812,1072,3795z"/>
	<path class="st0" d="M1112,3635c12-24,23-43,26-41c4,5-36,86-43,86C1092,3680,1100,3660,1112,3635z"/>
	<path class="st0" d="M1141,3575c1-19,18-51,18-35c0,8-4,22-9,30S1141,3581,1141,3575z"/>
	<path class="st0" d="M1810,2603c0-34,5-55,16-64c15-12,16-9,9,41C1825,2654,1810,2668,1810,2603z"/>
	<path class="st0" d="M1865,2598c9-70,14-88,27-88c11,0,5,90-8,124C1870,2670,1858,2648,1865,2598z"/>
	<path class="st0" d="M1920,2616c0-43,13-87,24-83c17,6,4,107-14,107C1924,2640,1920,2629,1920,2616z"/>
	<path class="st0" d="M2000,3051c0-11,4-22,9-25c4-3,6,6,3,19C2007,3075,2000,3078,2000,3051z"/>
	<path class="st0" d="M2638,1983c7-3,16-2,19,1c4,3-2,6-13,5C2633,1989,2630,1986,2638,1983z"/>
	<path class="st0" d="M2624,1927c-9-25,0-100,14-105c8-3,12,12,12,52C2650,1927,2636,1957,2624,1927z"/>
	<path class="st0" d="M2557,1924c-4-4-7-34-7-66c0-78,24-76,28,2C2581,1910,2572,1938,2557,1924z"/>
	<path class="st0" d="M2490,1865c0-30,5-55,10-55c6,0,10,25,10,55s-4,55-10,55C2495,1920,2490,1895,2490,1865z"/>
	<path class="st0" d="M1844,7210c-106-22-203-102-250-205c-23-49-28-74-28-140c0-69,4-90,31-147c39-82,105-151,181-186
		c49-23,70-27,152-27c78,0,104,4,147,24c62,28,146,112,174,175c82,186,4,400-175,482C2018,7213,1909,7224,1844,7210z M2167,7087
		c19-17,46-53,61-81c24-45,27-62,27-151c0-85-3-106-23-143c-59-110-161-180-275-189c-84-7-128,9-172,60c-30,34-34,46-29,74
		c3,18,1,55-6,83s-9,65-6,83c6,34,65,107,86,107c6,0,18,7,26,15c9,8,13,15,9,15s1,7,9,16c9,8,14,19,11,24c-3,4,2,13,10,20
		s15,19,15,26c0,8,6,14,14,14s16,7,19,15c8,19,90,43,146,43C2123,7118,2140,7111,2167,7087z M1810,7096c0-19-17-29-37-22
		c-12,5-13,9-3,21C1786,7114,1810,7114,1810,7096z M1660,6881c0-12-20-25-27-18s6,27,18,27C1656,6890,1660,6886,1660,6881z
		 M1635,6770c3-5,1-10-4-10c-6,0-11,5-11,10c0,6,2,10,4,10C1627,6780,1632,6776,1635,6770z M1724,6687c-11-28-33-20-30,11
		c2,15,4,29,5,32c0,2,8-3,16-11C1724,6710,1728,6696,1724,6687z"/>
	<path class="st0" d="M2080,7073c0-8,5-13,12-11c18,6,21,25,3,25C2087,7087,2080,7080,2080,7073z"/>
	<path class="st0" d="M1970,7050c0-6,7-10,15-10s15,2,15,4s-7,6-15,10C1977,7057,1970,7055,1970,7050z"/>
	<path class="st0" d="M1944,6931c4-5-8-12-24-16c-33-7-35-22-6-39c14-9,21-6,36,12c19,22,17,52-2,52C1943,6940,1941,6936,1944,6931z
		"/>
	<path class="st0" d="M2008,6818c-11-11-14-20-7-24c14-8,40,18,31,32C2027,6832,2019,6830,2008,6818z"/>
	<path class="st0" d="M1795,6819c-4-6-5-13-2-16c7-7,27,6,27,18S1803,6833,1795,6819z"/>
	<path class="st0" d="M4143,3850c-264-47-450-317-404-586c44-252,260-436,511-436c295,0,516,239,497,537c-7,105-31,174-92,265
		C4546,3793,4335,3883,4143,3850z M4403,3801c31-12,71-34,87-47c30-26,95-134,79-134c-5,0,0-14,10-31c19-32,19-32-4-55
		c-13-13-26-42-30-66s-10-47-13-53c-3-5-5-24-3-42c2-24-7-45-39-87c-22-31-47-56-55-56s-31-9-52-21s-48-19-64-17c-21,3-29,0-33-15
		c-4-17-7-18-21-7c-13,11-15,10-9-4c4-10,1-16-8-16c-7,0-22-13-31-30c-11-18-23-27-32-23c-8,3-15,0-15-5c0-12-38-27-57-24
		c-7,2-13-2-13-9c0-9-24-10-92-5c-122,9-118,8-118,19c0,5-5,7-12,5c-16-6-56,30-76,67c-26,51-42,127-42,205c0,136,45,247,139,341
		c60,60,112,91,201,121C4176,3837,4322,3832,4403,3801z M4631,3477c-1-4-1-21-1-38c0-26-3-30-22-27c-29,4-35,39-12,62
		C4612,3490,4632,3492,4631,3477z M4698,3312c2-7-3-12-12-12s-16,7-16,16C4670,3333,4692,3330,4698,3312z M4630,3186c0-1-5-17-11-35
		c-12-35-41-40-47-8c-6,30,6,47,33,47C4619,3190,4630,3188,4630,3186z M4408,3123c-4-22-22-20-26,1c-2,10,3,16,13,16
		S4410,3133,4408,3123z M4336,2977c6-18-18-62-33-61c-7,1-17,2-23,3c-14,1-13,44,2,59C4298,2994,4329,2993,4336,2977z M4114,2971
		c3-5-1-14-8-20c-16-13-32,2-21,19C4093,2982,4107,2983,4114,2971z"/>
	<path class="st0" d="M4255,3770c-7-21,0-40,15-40c5,0,7,6,4,14s-1,17,5,21c16,9,13,25-3,25C4268,3790,4259,3781,4255,3770z"/>
	<path class="st0" d="M4541,3574c0-11,3-14,6-6c3,7,2,16-1,19C4543,3591,4540,3585,4541,3574z"/>
	<path class="st0" d="M4127,3469c-19-11-23-54-5-65c7-4,8-3,4,5c-5,8,3,16,23,24c17,6,31,15,31,19C4180,3467,4145,3478,4127,3469z"
		/>
	<path class="st0" d="M4408,3349c-10-5-18-19-18-29c0-18,2-18,34,3C4469,3352,4454,3376,4408,3349z"/>
	<path class="st0" d="M4189,3316c-13-6-28-24-33-39c-11-29,0-50,14-27c10,16,45,19,72,8c20-10,32,16,18,41
		C4248,3323,4217,3330,4189,3316z"/>
	<path class="st0" d="M4230,3200c-9-6-10-10-3-10c6,0,15,5,18,10C4253,3212,4249,3212,4230,3200z"/>
	<path class="st0" d="M3880,3133c0-9,3-13,7-10c3,4,12,2,20-5c17-13,28-4,20,17C3918,3156,3880,3155,3880,3133z"/>
	<path class="st0" d="M4037,3124c-13-14-7-19,24-21c20-2,29,2,26,10C4083,3127,4048,3134,4037,3124z"/>
	<path class="st0" d="M3834,2404c-133-49-194-215-126-345c103-198,378-177,448,34c38,114-18,242-130,299
		C3974,2418,3887,2424,3834,2404z M3997,2385c43-18,67-41,79-76c11-33,11-139,0-139c-5,0-7-3-3-6c8-8-62-72-87-80c-11-4-27-16-36-27
		c-41-51-217-23-240,38c-17,45-12,135,11,182C3769,2377,3897,2427,3997,2385z M4094,2075c-6-16-24-21-24-7c0,11,11,22,21,22
		C4096,2090,4097,2083,4094,2075z M3946,1973c-10-10-19,5-10,18c6,11,8,11,12,0C3950,1984,3949,1976,3946,1973z"/>
	<path class="st0" d="M4030,2191c0-6,5-13,10-16c6-3,10,1,10,9c0,9-4,16-10,16C4035,2200,4030,2196,4030,2191z"/>
	<path class="st0" d="M3880,2145c-9-11-10-19-3-26c8-8,13-7,17,0c4,6,16,11,26,11c13,0,17,5,14,15C3926,2164,3896,2164,3880,2145z"
		/>
</g>
</svg>
